<?xml version="1.0" encoding="utf-8"?>
<!-- Generator: Adobe Illustrator 23.0.4, SVG Export Plug-In . SVG Version: 6.00 Build 0)  -->
<svg version="1.1" id="Layer_1" xmlns:sketch="http://www.bohemiancoding.com/sketch/ns"
	 xmlns="http://www.w3.org/2000/svg" xmlns:xlink="http://www.w3.org/1999/xlink" x="0px" y="0px" viewBox="0 0 46 46"
	 style="enable-background:new 0 0 46 46;" xml:space="preserve">
<style type="text/css">
	.st0{fill-rule:evenodd;clip-rule:evenodd;fill:#4285F4;}
	.st1{fill-rule:evenodd;clip-rule:evenodd;fill:#34A853;}
	.st2{fill-rule:evenodd;clip-rule:evenodd;fill:#FBBC05;}
	.st3{fill-rule:evenodd;clip-rule:evenodd;fill:#EA4335;}
	.st4{fill:none;}
</style>
<title>btn_google_light_normal_ios</title>
<desc>Created with Sketch.</desc>
<g id="Google-Button" sketch:type="MSPage">
	<g transform="translate(-608.000000, -160.000000)" sketch:type="MSArtboardGroup">
	</g>
	<g id="btn_google_light_normal" transform="translate(-1.000000, -1.000000)" sketch:type="MSArtboardGroup">
		<g id="logo_googleg_48dp" transform="translate(15.000000, 15.000000)" sketch:type="MSLayerGroup">
			<path id="Shape" sketch:type="MSShapeGroup" class="st0" d="M17.6,9.2c0-0.6-0.1-1.3-0.2-1.8H9v3.5h4.8C13.6,12,13,12.9,12,13.6
				v2.3H15C16.7,14.3,17.6,11.9,17.6,9.2L17.6,9.2z"/>
			<path sketch:type="MSShapeGroup" class="st1" d="M9,18c2.4,0,4.5-0.8,6-2.2L12,13.6c-0.8,0.5-1.8,0.9-3,0.9c-2.3,0-4.3-1.6-5-3.7
				H1V13C2.4,16,5.5,18,9,18L9,18z"/>
			<path sketch:type="MSShapeGroup" class="st2" d="M4,10.7C3.8,10.2,3.7,9.6,3.7,9S3.8,7.8,4,7.3V5H1C0.3,6.2,0,7.5,0,9
				s0.3,2.8,1,4L4,10.7L4,10.7z"/>
			<path sketch:type="MSShapeGroup" class="st3" d="M9,3.6c1.3,0,2.5,0.5,3.4,1.3L15,2.3C13.5,0.9,11.4,0,9,0C5.5,0,2.4,2,1,5l3,2.3
				C4.7,5.2,6.7,3.6,9,3.6L9,3.6z"/>
			<path sketch:type="MSShapeGroup" class="st4" d="M0,0h18v18H0V0z"/>
		</g>
		<g id="handles_square" sketch:type="MSLayerGroup">
		</g>
	</g>
</g>
</svg>
