<svg id="Layer_1" data-name="Layer 1" xmlns="http://www.w3.org/2000/svg" viewBox="0 0 1912 154.23"><defs><style>.cls-1{fill:#fff;}.cls-2{fill:none;stroke:#fff;}.cls-2,.cls-4{stroke-width:2px;}.cls-3,.cls-4{fill:#212b40;}.cls-4{stroke:#212b40;}</style></defs><title>if-logo-dark</title><path class="cls-1" d="M28.2,79.6V20.3H42.3V79.6Z" transform="translate(-22 -10.47)"/><path class="cls-1" d="M65.1,32.5v6.9C68,34.5,72.6,32,79,32a16.58,16.58,0,0,1,12.9,5.4c3.3,3.6,4.9,8.5,4.9,14.7V79.6h-14V54a10,10,0,0,0-2.4-7.1,8.73,8.73,0,0,0-6.5-2.5A8.45,8.45,0,0,0,67.4,47c-1.6,1.6-2.4,4-2.4,7V79.6H50.9V32.5Z" transform="translate(-22 -10.47)"/><path class="cls-1" d="M124.6,67.4h5V79.7h-7.2c-5.2,0-9.2-1.2-12-3.5s-4.2-6.3-4.3-12V44.5h-4.3v-12h4.3V21h14.2V32.5h9.3v12h-9.3V64.1C120.3,66.3,121.7,67.4,124.6,67.4Z" transform="translate(-22 -10.47)"/><path class="cls-1" d="M155.1,80.2q-10,0-16.5-6.6c-4.3-4.4-6.4-10.3-6.5-17.6s2.1-13.2,6.4-17.5,9.8-6.5,16.6-6.5,12.4,2.1,16.9,6.4,6.7,10.2,6.7,17.8a35.53,35.53,0,0,1-.3,4.6H146.6a7.79,7.79,0,0,0,2.7,5.1,7.2,7.2,0,0,0,5,2,9.08,9.08,0,0,0,4-.6,5.93,5.93,0,0,0,1.9-1.1c.6-.6,1.1-1.2,1.6-1.8h15.3a20.52,20.52,0,0,1-7.9,11.4A22.94,22.94,0,0,1,155.1,80.2Zm6-33.8a8.88,8.88,0,0,0-5.9-2.1,8.08,8.08,0,0,0-5.7,2.1,8.76,8.76,0,0,0-2.9,5.4h17.3a7.23,7.23,0,0,0-2.8-5.4Z" transform="translate(-22 -10.47)"/><path class="cls-1" d="M198.1,32.5v8.8q5-9.3,13.2-9.3V46.7h-3.5c-3.3,0-5.7.8-7.3,2.4s-2.4,4.3-2.4,8.3V79.7H184V32.5Z" transform="translate(-22 -10.47)"/><path class="cls-1" d="M229.3,32.5v6.9c2.9-5,7.6-7.4,14-7.4a16.58,16.58,0,0,1,12.9,5.4c3.3,3.6,4.9,8.5,4.9,14.7V79.7H247V54a10,10,0,0,0-2.4-7.1,9.77,9.77,0,0,0-13,0c-1.6,1.7-2.4,4-2.4,7.1V79.6H215.1V32.5Z" transform="translate(-22 -10.47)"/><path class="cls-1" d="M272,73.5c-4.1-4.5-6.1-10.3-6.1-17.3s2-12.8,6.1-17.4A19.41,19.41,0,0,1,286.9,32c5.9,0,10.4,2.2,13.5,6.7V32.5h14.1V79.6H300.4V72.8a15.74,15.74,0,0,1-13.7,7.4A19.05,19.05,0,0,1,272,73.5Zm25.4-8.8c2-2,3.1-4.9,3.1-8.6s-1-6.6-3.1-8.6a9.75,9.75,0,0,0-13.7-.4l-.4.4c-2,2-3.1,4.9-3.1,8.6s1,6.6,3.1,8.6a9.75,9.75,0,0,0,13.7.4C297.1,64.9,297.3,64.8,297.4,64.7Z" transform="translate(-22 -10.47)"/><path class="cls-1" d="M342.8,67.4h5V79.7h-7.2c-5.2,0-9.2-1.2-12-3.5s-4.2-6.3-4.3-12V44.5H320v-12h4.3V21h14.1V32.5h9.3v12h-9.3V64.1C338.5,66.3,339.9,67.4,342.8,67.4Z" transform="translate(-22 -10.47)"/><path class="cls-1" d="M366.6,27.1a8.33,8.33,0,0,1-11.7.1l-.1-.1a8.7,8.7,0,0,1,0-12,8.33,8.33,0,0,1,11.7-.1l.1.1a8.47,8.47,0,0,1,2.4,6A8.14,8.14,0,0,1,366.6,27.1ZM353.7,79.6V32.5h14.1V79.6Z" transform="translate(-22 -10.47)"/><path class="cls-1" d="M380.1,73.5c-4.7-4.4-7-10.3-7-17.6s2.3-13.1,6.9-17.5a25.93,25.93,0,0,1,34.4,0c4.6,4.4,6.9,10.2,6.9,17.5S419,69,414.4,73.5a25.3,25.3,0,0,1-34.3,0Zm24-8.7c1.9-2,2.8-4.9,2.8-8.8s-1-6.8-2.9-8.8a9.54,9.54,0,0,0-6.9-3,9.16,9.16,0,0,0-6.8,3c-1.9,2-2.9,4.9-2.9,8.8s1,6.8,2.9,8.8a9.54,9.54,0,0,0,6.9,3,8.55,8.55,0,0,0,6.9-3Z" transform="translate(-22 -10.47)"/><path class="cls-1" d="M440.7,32.5v6.9c2.9-5,7.6-7.4,14-7.4a16.58,16.58,0,0,1,12.9,5.4c3.3,3.6,4.9,8.5,4.9,14.7V79.7H458.4V54a10,10,0,0,0-2.4-7.1,9.77,9.77,0,0,0-13,0c-1.6,1.7-2.4,4-2.4,7.1V79.6H426.5V32.5Z" transform="translate(-22 -10.47)"/><path class="cls-1" d="M483.4,73.5c-4.1-4.5-6.1-10.3-6.1-17.3s2-12.8,6.1-17.4A19.41,19.41,0,0,1,498.3,32c5.9,0,10.4,2.2,13.5,6.7V32.5H526V79.6H511.8V72.8a15.74,15.74,0,0,1-13.7,7.4A18.91,18.91,0,0,1,483.4,73.5Zm25.4-8.8c2-2,3.1-4.9,3.1-8.6s-1-6.6-3.1-8.6a9.75,9.75,0,0,0-13.7-.4l-.4.4c-2,2-3.1,4.9-3.1,8.6s1,6.6,3.1,8.6a9.75,9.75,0,0,0,13.7.4C508.5,64.9,508.7,64.8,508.8,64.7Z" transform="translate(-22 -10.47)"/><path class="cls-1" d="M534.6,79.6V17.1h14.1V79.6Z" transform="translate(-22 -10.47)"/><path class="cls-1" d="M578.3,79.6V20.3h37.8v11H592.5V44h17.7V55H592.5V79.6Z" transform="translate(-22 -10.47)"/><path class="cls-1" d="M636.2,32.5v8.8q4.95-9.3,13.2-9.3V46.7h-3.5c-3.3,0-5.7.8-7.3,2.4s-2.4,4.3-2.4,8.3V79.7H622V32.5Z" transform="translate(-22 -10.47)"/><path class="cls-1" d="M666.2,27.1a8.33,8.33,0,0,1-11.7.1l-.1-.1a8.7,8.7,0,0,1,0-12,8.33,8.33,0,0,1,11.7-.1l.1.1a8.47,8.47,0,0,1,2.4,6A8.14,8.14,0,0,1,666.2,27.1ZM653.3,79.6V32.5h14.1V79.6Z" transform="translate(-22 -10.47)"/><path class="cls-1" d="M695.6,80.2q-10.05,0-16.5-6.6c-4.3-4.4-6.4-10.3-6.4-17.6s2.1-13.2,6.4-17.5,9.8-6.5,16.6-6.5,12.4,2.1,16.9,6.4,6.7,10.2,6.7,17.8a35.53,35.53,0,0,1-.3,4.6H687.2a7.79,7.79,0,0,0,2.7,5.1,7.2,7.2,0,0,0,5,2,9.08,9.08,0,0,0,4-.6,5.93,5.93,0,0,0,1.9-1.1c.6-.6,1.1-1.2,1.6-1.8h15.3a20.52,20.52,0,0,1-7.9,11.4A23.43,23.43,0,0,1,695.6,80.2Zm6-33.8a8.88,8.88,0,0,0-5.9-2.1,8.08,8.08,0,0,0-5.7,2.1,8.76,8.76,0,0,0-2.9,5.4h17.3a7.23,7.23,0,0,0-2.8-5.4Z" transform="translate(-22 -10.47)"/><path class="cls-1" d="M738.6,32.5v6.9c2.9-4.9,7.6-7.4,14-7.4a16.58,16.58,0,0,1,12.9,5.4c3.3,3.6,4.9,8.5,4.9,14.7V79.6H756.3V54a10,10,0,0,0-2.4-7.1,9.77,9.77,0,0,0-13,0c-1.6,1.7-2.3,4-2.3,7.1V79.6H724.5V32.5Z" transform="translate(-22 -10.47)"/><path class="cls-1" d="M781.3,73.5c-4.1-4.5-6.1-10.3-6.1-17.3s2-12.8,6.1-17.4A19.41,19.41,0,0,1,796.2,32c5.9,0,10.4,2.2,13.5,6.7V17.1h14.1V79.6H809.7V72.8A15.74,15.74,0,0,1,796,80.2,18.76,18.76,0,0,1,781.3,73.5Zm25.3-8.8c2-2,3.1-4.9,3.1-8.6s-1-6.6-3.1-8.6a9.75,9.75,0,0,0-13.7-.4l-.4.4c-2,2-3.1,4.9-3.1,8.6s1,6.6,3.1,8.6a9.75,9.75,0,0,0,13.7.4Z" transform="translate(-22 -10.47)"/><path class="cls-1" d="M829.3,46.7a13.17,13.17,0,0,1,5.2-10.5q5.25-4.2,14.1-4.2c5.9,0,10.7,1.4,14.3,4.1a14.55,14.55,0,0,1,5.8,11.3H854.2a4,4,0,0,0-1.7-3.3,7.81,7.81,0,0,0-4.2-.9c-3.7,0-5.5,1.2-5.5,3.5,0,2.1,2.3,3.5,6.8,4.3a54.22,54.22,0,0,1,12.5,3.6,10.82,10.82,0,0,1,4.8,3.9,11.38,11.38,0,0,1,1.9,6.7,12.86,12.86,0,0,1-5.5,10.7c-3.7,2.8-8.4,4.2-14,4.2s-10.3-1.3-14-3.9-5.8-6.5-6.1-11.6h14.5c.4,2.9,2.4,4.3,6,4.3a6.59,6.59,0,0,0,4.1-1.2,3.66,3.66,0,0,0,1.6-3q0-1.8-2.7-3a48.43,48.43,0,0,0-6.5-1.9,78.47,78.47,0,0,1-7.7-1.9,13.74,13.74,0,0,1-6.5-4A10,10,0,0,1,829.3,46.7Z" transform="translate(-22 -10.47)"/><line class="cls-2" y1="84.53" x2="911" y2="84.53"/><path class="cls-1" d="M25.2,114.9v-3.7h28v3.7H41.4V156H37V114.9Z" transform="translate(-22 -10.47)"/><path class="cls-1" d="M81.3,120.6h4.6v35.5H81.3v-5.8c-2.4,4.3-6.3,6.4-11.8,6.4a13.65,13.65,0,0,1-9.9-3.9c-2.7-2.6-4-6.3-4-11.1V120.6h4.5v20.3c0,3.9.9,6.9,2.8,8.9a10.11,10.11,0,0,0,7.7,3.1,9.76,9.76,0,0,0,7.7-3.1c1.9-2,2.8-5,2.8-8.9Z" transform="translate(-22 -10.47)"/><path class="cls-1" d="M98.1,151.6c-3.2-3.4-4.7-7.8-4.7-13.3s1.6-9.9,4.7-13.3a16.39,16.39,0,0,1,12.3-5.1c8.3,0,13.6,3.7,15.9,11.2h-4.9a10.47,10.47,0,0,0-3.9-5.6,13,13,0,0,0-16.1,1.8c-2.3,2.5-3.5,6.2-3.5,10.9s1.1,8.4,3.4,11a11.14,11.14,0,0,0,9,3.8,12,12,0,0,0,7.1-2,10.11,10.11,0,0,0,3.9-5.6h4.9a16.54,16.54,0,0,1-5.7,8.1,17,17,0,0,1-10.2,3.1A15.53,15.53,0,0,1,98.1,151.6Z" transform="translate(-22 -10.47)"/><path class="cls-1" d="M133.6,130.4a9.19,9.19,0,0,1,3.6-7.4,14,14,0,0,1,9.3-3c3.8,0,6.7,1,8.8,3a12,12,0,0,1,3.5,8.2h-4.7a7.38,7.38,0,0,0-7.3-7.5h-.7a8.55,8.55,0,0,0-5.8,1.8,5.8,5.8,0,0,0-2.1,4.4,5.35,5.35,0,0,0,1.6,4.1,8.57,8.57,0,0,0,3.9,2c1.6.3,3.3.8,5.1,1.2a52.13,52.13,0,0,1,5.1,1.5,7.63,7.63,0,0,1,3.9,2.9,9.49,9.49,0,0,1,1.6,5.4,8.45,8.45,0,0,1-3.6,7,14.83,14.83,0,0,1-9.4,2.7c-3.9,0-6.9-1-9.2-3a11.39,11.39,0,0,1-3.7-8.1h4.7a7.82,7.82,0,0,0,2.3,5.4,8.59,8.59,0,0,0,6.1,2.1,10,10,0,0,0,6-1.7,4.92,4.92,0,0,0,2.1-4.3,5.35,5.35,0,0,0-1.6-4.1,8.57,8.57,0,0,0-3.9-2c-1.6-.4-3.3-.8-5.1-1.3s-3.6-1-5.1-1.5a7.73,7.73,0,0,1-5.4-7.8Z" transform="translate(-22 -10.47)"/><path class="cls-1" d="M183.2,156.7a16.1,16.1,0,0,1-12.4-5.1c-3.2-3.4-4.8-7.8-4.8-13.3a17.82,17.82,0,0,1,30.5-13.4c3.4,3.4,5.1,7.8,5.1,13.3a17.86,17.86,0,0,1-5.3,13.3A18.44,18.44,0,0,1,183.2,156.7Zm0-3.6a13.47,13.47,0,0,0,9.6-4c2.7-2.7,4-6.3,4-10.8s-1.3-8.1-3.8-10.8a12.24,12.24,0,0,0-9.4-3.9,11.82,11.82,0,0,0-9.2,3.9c-2.5,2.6-3.7,6.2-3.7,10.8s1.2,8.2,3.5,10.9a11.59,11.59,0,0,0,9,3.9Z" transform="translate(-22 -10.47)"/><path class="cls-1" d="M213.5,120.6v5.8c2.4-4.3,6.3-6.4,11.8-6.4a13.65,13.65,0,0,1,9.9,3.9c2.7,2.6,4,6.3,4,11.1v21.1h-4.5V135.8c0-3.9-.9-6.9-2.8-8.9a11.3,11.3,0,0,0-15.5,0c-1.9,2-2.8,5-2.8,8.9v20.3H209V120.6Z" transform="translate(-22 -10.47)"/><path class="cls-1" d="M246.4,152.4h5.3c.9,4.5.8,7.6-.1,9.5s-2.7,2.8-5.3,2.8v-2.5c2,0,3-1.1,3-3.2v-1.6h-2.9Z" transform="translate(-22 -10.47)"/><path class="cls-1" d="M310.9,156.1l-3.8-10.5H286.2l-3.8,10.5h-4.6l16.5-44.8H299l16.4,44.8ZM287.5,142h18.3l-9.1-25.1Z" transform="translate(-22 -10.47)"/><path class="cls-1" d="M326.4,120.6v5.8c1.9-4.3,5.6-6.5,11-6.5v4.7H336c-3.1,0-5.5.8-7.2,2.5s-2.5,4.6-2.5,8.7v20.1h-4.5V120.4h4.6Z" transform="translate(-22 -10.47)"/><path class="cls-1" d="M350.4,110.5a3.58,3.58,0,0,1-.9,2.4,3,3,0,0,1-2.3,1,3.35,3.35,0,1,1-.3-6.7h.4a2.9,2.9,0,0,1,2.3,1A3.78,3.78,0,0,1,350.4,110.5Zm-5.6,45.6V120.6h4.5v35.5Z" transform="translate(-22 -10.47)"/><path class="cls-1" d="M379.9,120.6v3.6l-18.1,28.3h18.1v3.6H356.8v-3.6l18.1-28.3H356.8v-3.6Z" transform="translate(-22 -10.47)"/><path class="cls-1" d="M402.4,156.7a16.1,16.1,0,0,1-12.4-5.1c-3.2-3.4-4.8-7.8-4.8-13.3a17.82,17.82,0,0,1,30.5-13.4c3.4,3.4,5.1,7.8,5.1,13.3a17.86,17.86,0,0,1-5.3,13.3A18.61,18.61,0,0,1,402.4,156.7Zm0-3.6a13.07,13.07,0,0,0,9.5-4c2.7-2.7,4-6.3,4-10.8s-1.3-8.1-3.8-10.8a12.24,12.24,0,0,0-9.4-3.9,11.82,11.82,0,0,0-9.2,3.9c-2.5,2.6-3.7,6.2-3.7,10.8s1.2,8.2,3.5,10.9a12,12,0,0,0,9.1,3.9Z" transform="translate(-22 -10.47)"/><path class="cls-1" d="M432.7,120.6v5.8c2.4-4.3,6.3-6.4,11.8-6.4a13.65,13.65,0,0,1,9.9,3.9c2.7,2.6,4,6.3,4,11.1v21.1h-4.5V135.8c0-3.9-.9-6.9-2.8-8.9a11.3,11.3,0,0,0-15.5,0c-1.9,2-2.8,5-2.8,8.9v20.3h-4.5V120.6Z" transform="translate(-22 -10.47)"/><path class="cls-1" d="M470.3,151.4a19.21,19.21,0,0,1-4.9-13.4c0-5.4,1.6-9.8,4.8-13.1a16.67,16.67,0,0,1,12.3-5,16,16,0,0,1,8.5,2.3,14.27,14.27,0,0,1,5.4,6v-7.7H501V156h-4.5v-7.8a15.16,15.16,0,0,1-5.4,6.1,16.66,16.66,0,0,1-20.8-2.9Zm22.3-2.6a16.08,16.08,0,0,0,0-21,12.63,12.63,0,0,0-9.3-4,12.45,12.45,0,0,0-9.3,3.8c-2.6,2.6-3.8,6-3.8,10.4a14.67,14.67,0,0,0,3.9,10.7,11.87,11.87,0,0,0,9.3,4.1,12.21,12.21,0,0,0,9.2-4Z" transform="translate(-22 -10.47)"/><path class="cls-3" d="M1029.2,77.43V18.13h14.1v59.3Z" transform="translate(-22 -10.47)"/><path class="cls-3" d="M1066.1,30.33v6.9c2.9-4.9,7.5-7.4,13.9-7.4a16.58,16.58,0,0,1,12.9,5.4c3.3,3.6,4.9,8.5,4.9,14.7v27.5h-14V51.83a10,10,0,0,0-2.4-7.1,8.73,8.73,0,0,0-6.5-2.5,8.45,8.45,0,0,0-6.5,2.6c-1.6,1.6-2.4,4-2.4,7v25.6h-14.1V30.33Z" transform="translate(-22 -10.47)"/><path class="cls-3" d="M1125.6,65.23h5v12.3h-7.2c-5.2,0-9.2-1.2-12-3.5s-4.2-6.3-4.3-12V42.33h-4.3v-12h4.3V18.83h14.2v11.5h9.3v12h-9.3v19.6C1121.3,64.13,1122.7,65.23,1125.6,65.23Z" transform="translate(-22 -10.47)"/><path class="cls-3" d="M1156.1,78q-10,0-16.5-6.6c-4.3-4.4-6.4-10.3-6.5-17.6s2.1-13.2,6.4-17.5,9.8-6.5,16.6-6.5,12.4,2.1,16.9,6.4,6.7,10.2,6.7,17.8a35.53,35.53,0,0,1-.3,4.6h-31.8a7.79,7.79,0,0,0,2.7,5.1,7.2,7.2,0,0,0,5,2,9.08,9.08,0,0,0,4-.6,5.93,5.93,0,0,0,1.9-1.1c.6-.6,1.1-1.2,1.6-1.8h15.3a20.52,20.52,0,0,1-7.9,11.4A22.94,22.94,0,0,1,1156.1,78Zm6-33.8a8.88,8.88,0,0,0-5.9-2.1,8.08,8.08,0,0,0-5.7,2.1,8.76,8.76,0,0,0-2.9,5.4h17.3a7.23,7.23,0,0,0-2.8-5.4Z" transform="translate(-22 -10.47)"/><path class="cls-3" d="M1199.1,30.33v8.8q5-9.3,13.2-9.3v14.7h-3.5c-3.3,0-5.7.8-7.3,2.4s-2.4,4.3-2.4,8.3v22.3H1185V30.33Z" transform="translate(-22 -10.47)"/><path class="cls-3" d="M1230.3,30.33v6.9c2.9-5,7.6-7.4,14-7.4a16.58,16.58,0,0,1,12.9,5.4c3.3,3.6,4.9,8.5,4.9,14.7v27.6H1248V51.83a10,10,0,0,0-2.4-7.1,9.77,9.77,0,0,0-13,0c-1.6,1.7-2.4,4-2.4,7.1v25.6h-14.1V30.33Z" transform="translate(-22 -10.47)"/><path class="cls-3" d="M1273,71.33c-4.1-4.5-6.1-10.3-6.1-17.3s2-12.8,6.1-17.4a19.41,19.41,0,0,1,14.9-6.8c5.9,0,10.4,2.2,13.5,6.7v-6.2h14.1v47.1h-14.1v-6.8a15.74,15.74,0,0,1-13.7,7.4A19.05,19.05,0,0,1,1273,71.33Zm25.4-8.8c2-2,3.1-4.9,3.1-8.6s-1-6.6-3.1-8.6a9.75,9.75,0,0,0-13.7-.4l-.4.4c-2,2-3.1,4.9-3.1,8.6s1,6.6,3.1,8.6a9.75,9.75,0,0,0,13.7.4C1298.1,62.73,1298.3,62.63,1298.4,62.53Z" transform="translate(-22 -10.47)"/><path class="cls-3" d="M1343.8,65.23h5v12.3h-7.2c-5.2,0-9.2-1.2-12-3.5s-4.2-6.3-4.3-12V42.33H1321v-12h4.3V18.83h14.1v11.5h9.3v12h-9.3v19.6C1339.5,64.13,1340.9,65.23,1343.8,65.23Z" transform="translate(-22 -10.47)"/><path class="cls-3" d="M1367.6,24.93a8.33,8.33,0,0,1-11.7.1l-.1-.1a8.7,8.7,0,0,1,0-12,8.33,8.33,0,0,1,11.7-.1l.1.1a8.47,8.47,0,0,1,2.4,6A8.14,8.14,0,0,1,1367.6,24.93Zm-12.9,52.5V30.33h14.1v47.1Z" transform="translate(-22 -10.47)"/><path class="cls-3" d="M1381.1,71.33c-4.7-4.4-7-10.3-7-17.6s2.3-13.1,6.9-17.5a25.93,25.93,0,0,1,34.4,0c4.6,4.4,6.9,10.2,6.9,17.5s-2.3,13.1-6.9,17.6a25.3,25.3,0,0,1-34.3,0Zm24-8.7c1.9-2,2.8-4.9,2.8-8.8s-1-6.8-2.9-8.8a9.54,9.54,0,0,0-6.9-3,9.16,9.16,0,0,0-6.8,3c-1.9,2-2.9,4.9-2.9,8.8s1,6.8,2.9,8.8a9.54,9.54,0,0,0,6.9,3,8.55,8.55,0,0,0,6.9-3Z" transform="translate(-22 -10.47)"/><path class="cls-3" d="M1441.7,30.33v6.9c2.9-5,7.6-7.4,14-7.4a16.58,16.58,0,0,1,12.9,5.4c3.3,3.6,4.9,8.5,4.9,14.7v27.6h-14.1V51.83a10,10,0,0,0-2.4-7.1,9.77,9.77,0,0,0-13,0c-1.6,1.7-2.4,4-2.4,7.1v25.6h-14.1V30.33Z" transform="translate(-22 -10.47)"/><path class="cls-3" d="M1484.4,71.33c-4.1-4.5-6.1-10.3-6.1-17.3s2-12.8,6.1-17.4a19.41,19.41,0,0,1,14.9-6.8c5.9,0,10.4,2.2,13.5,6.7v-6.2H1527v47.1h-14.2v-6.8a15.74,15.74,0,0,1-13.7,7.4A18.91,18.91,0,0,1,1484.4,71.33Zm25.4-8.8c2-2,3.1-4.9,3.1-8.6s-1-6.6-3.1-8.6a9.75,9.75,0,0,0-13.7-.4l-.4.4c-2,2-3.1,4.9-3.1,8.6s1,6.6,3.1,8.6a9.75,9.75,0,0,0,13.7.4C1509.5,62.73,1509.7,62.63,1509.8,62.53Z" transform="translate(-22 -10.47)"/><path class="cls-3" d="M1535.6,77.43V14.93h14.1v62.5Z" transform="translate(-22 -10.47)"/><path class="cls-3" d="M1579.3,77.43V18.13h37.8v11h-23.6v12.7h17.7v11h-17.7v24.6Z" transform="translate(-22 -10.47)"/><path class="cls-3" d="M1637.2,30.33v8.8q5-9.3,13.2-9.3v14.7h-3.5c-3.3,0-5.7.8-7.3,2.4s-2.4,4.3-2.4,8.3v22.3H1623V30.33Z" transform="translate(-22 -10.47)"/><path class="cls-3" d="M1667.2,24.93a8.33,8.33,0,0,1-11.7.1l-.1-.1a8.7,8.7,0,0,1,0-12,8.33,8.33,0,0,1,11.7-.1l.1.1a8.47,8.47,0,0,1,2.4,6A8.14,8.14,0,0,1,1667.2,24.93Zm-12.9,52.5V30.33h14.1v47.1Z" transform="translate(-22 -10.47)"/><path class="cls-3" d="M1696.6,78q-10,0-16.5-6.6c-4.3-4.4-6.4-10.3-6.4-17.6s2.1-13.2,6.4-17.5,9.8-6.5,16.6-6.5,12.4,2.1,16.9,6.4,6.7,10.2,6.7,17.8a35.53,35.53,0,0,1-.3,4.6h-31.8a7.79,7.79,0,0,0,2.7,5.1,7.2,7.2,0,0,0,5,2,9.08,9.08,0,0,0,4-.6,5.93,5.93,0,0,0,1.9-1.1c.6-.6,1.1-1.2,1.6-1.8h15.3a20.52,20.52,0,0,1-7.9,11.4A23.43,23.43,0,0,1,1696.6,78Zm6-33.8a8.88,8.88,0,0,0-5.9-2.1,8.08,8.08,0,0,0-5.7,2.1,8.76,8.76,0,0,0-2.9,5.4h17.3a7.23,7.23,0,0,0-2.8-5.4Z" transform="translate(-22 -10.47)"/><path class="cls-3" d="M1739.6,30.33v6.9c2.9-4.9,7.6-7.4,14-7.4a16.58,16.58,0,0,1,12.9,5.4c3.3,3.6,4.9,8.5,4.9,14.7v27.5h-14.1V51.83a10,10,0,0,0-2.4-7.1,9.77,9.77,0,0,0-13,0c-1.6,1.7-2.3,4-2.3,7.1v25.6h-14.1V30.33Z" transform="translate(-22 -10.47)"/><path class="cls-3" d="M1782.3,71.33c-4.1-4.5-6.1-10.3-6.1-17.3s2-12.8,6.1-17.4a19.41,19.41,0,0,1,14.9-6.8c5.9,0,10.4,2.2,13.5,6.7V14.93h14.1v62.5h-14.1v-6.8A15.74,15.74,0,0,1,1797,78,18.76,18.76,0,0,1,1782.3,71.33Zm25.3-8.8c2-2,3.1-4.9,3.1-8.6s-1-6.6-3.1-8.6a9.75,9.75,0,0,0-13.7-.4l-.4.4c-2,2-3.1,4.9-3.1,8.6s1,6.6,3.1,8.6a9.75,9.75,0,0,0,13.7.4Z" transform="translate(-22 -10.47)"/><path class="cls-3" d="M1830.3,44.53a13.17,13.17,0,0,1,5.2-10.5q5.25-4.2,14.1-4.2c5.9,0,10.7,1.4,14.3,4.1a14.55,14.55,0,0,1,5.8,11.3h-14.5a4,4,0,0,0-1.7-3.3,7.81,7.81,0,0,0-4.2-.9c-3.7,0-5.5,1.2-5.5,3.5,0,2.1,2.3,3.5,6.8,4.3a54.22,54.22,0,0,1,12.5,3.6,10.82,10.82,0,0,1,4.8,3.9,11.38,11.38,0,0,1,1.9,6.7,12.86,12.86,0,0,1-5.5,10.7c-3.7,2.8-8.4,4.2-14,4.2s-10.3-1.3-14-3.9-5.8-6.5-6.1-11.6h14.5c.4,2.9,2.4,4.3,6,4.3a6.59,6.59,0,0,0,4.1-1.2,3.66,3.66,0,0,0,1.6-3q0-1.8-2.7-3a48.43,48.43,0,0,0-6.5-1.9,78.47,78.47,0,0,1-7.7-1.9,13.74,13.74,0,0,1-6.5-4A10,10,0,0,1,1830.3,44.53Z" transform="translate(-22 -10.47)"/><line class="cls-4" x1="1001" y1="82.35" x2="1912" y2="82.35"/><path class="cls-3" d="M1026.2,112.73V109h28v3.7h-11.8v41.1H1038v-41.1Z" transform="translate(-22 -10.47)"/><path class="cls-3" d="M1082.3,118.43h4.6v35.5h-4.6v-5.8c-2.4,4.3-6.3,6.4-11.8,6.4a13.65,13.65,0,0,1-9.9-3.9c-2.7-2.6-4-6.3-4-11.1v-21.1h4.5v20.3c0,3.9.9,6.9,2.8,8.9a10.11,10.11,0,0,0,7.7,3.1,9.76,9.76,0,0,0,7.7-3.1c1.9-2,2.8-5,2.8-8.9Z" transform="translate(-22 -10.47)"/><path class="cls-3" d="M1099.1,149.43c-3.2-3.4-4.7-7.8-4.7-13.3s1.6-9.9,4.7-13.3a16.39,16.39,0,0,1,12.3-5.1c8.3,0,13.6,3.7,15.9,11.2h-4.9a10.47,10.47,0,0,0-3.9-5.6,13,13,0,0,0-16.1,1.8c-2.3,2.5-3.5,6.2-3.5,10.9s1.1,8.4,3.4,11a11.14,11.14,0,0,0,9,3.8,12,12,0,0,0,7.1-2,10.11,10.11,0,0,0,3.9-5.6h4.9a16.54,16.54,0,0,1-5.7,8.1,17,17,0,0,1-10.2,3.1A15.53,15.53,0,0,1,1099.1,149.43Z" transform="translate(-22 -10.47)"/><path class="cls-3" d="M1134.6,128.23a9.19,9.19,0,0,1,3.6-7.4,14,14,0,0,1,9.3-3c3.8,0,6.7,1,8.8,3a12,12,0,0,1,3.5,8.2h-4.7a7.38,7.38,0,0,0-7.3-7.5h-.7a8.55,8.55,0,0,0-5.8,1.8,5.8,5.8,0,0,0-2.1,4.4,5.35,5.35,0,0,0,1.6,4.1,8.57,8.57,0,0,0,3.9,2c1.6.3,3.3.8,5.1,1.2a52.13,52.13,0,0,1,5.1,1.5,7.63,7.63,0,0,1,3.9,2.9,9.49,9.49,0,0,1,1.6,5.4,8.45,8.45,0,0,1-3.6,7,14.83,14.83,0,0,1-9.4,2.7c-3.9,0-6.9-1-9.2-3a11.39,11.39,0,0,1-3.7-8.1h4.7a7.82,7.82,0,0,0,2.3,5.4,8.59,8.59,0,0,0,6.1,2.1,10,10,0,0,0,6-1.7,4.92,4.92,0,0,0,2.1-4.3,5.35,5.35,0,0,0-1.6-4.1,8.57,8.57,0,0,0-3.9-2c-1.6-.4-3.3-.8-5.1-1.3s-3.6-1-5.1-1.5a7.73,7.73,0,0,1-5.4-7.8Z" transform="translate(-22 -10.47)"/><path class="cls-3" d="M1184.2,154.53a16.1,16.1,0,0,1-12.4-5.1c-3.2-3.4-4.8-7.8-4.8-13.3a17.82,17.82,0,0,1,30.5-13.4c3.4,3.4,5.1,7.8,5.1,13.3a17.86,17.86,0,0,1-5.3,13.3A18.44,18.44,0,0,1,1184.2,154.53Zm0-3.6a13.47,13.47,0,0,0,9.6-4c2.7-2.7,4-6.3,4-10.8s-1.3-8.1-3.8-10.8a12.24,12.24,0,0,0-9.4-3.9,11.82,11.82,0,0,0-9.2,3.9c-2.5,2.6-3.7,6.2-3.7,10.8s1.2,8.2,3.5,10.9a11.59,11.59,0,0,0,9,3.9Z" transform="translate(-22 -10.47)"/><path class="cls-3" d="M1214.5,118.43v5.8c2.4-4.3,6.3-6.4,11.8-6.4a13.65,13.65,0,0,1,9.9,3.9c2.7,2.6,4,6.3,4,11.1v21.1h-4.5v-20.3c0-3.9-.9-6.9-2.8-8.9a11.3,11.3,0,0,0-15.5,0c-1.9,2-2.8,5-2.8,8.9v20.3H1210v-35.5Z" transform="translate(-22 -10.47)"/><path class="cls-3" d="M1247.4,150.23h5.3c.9,4.5.8,7.6-.1,9.5s-2.7,2.8-5.3,2.8V160c2,0,3-1.1,3-3.2v-1.6h-2.9Z" transform="translate(-22 -10.47)"/><path class="cls-3" d="M1311.9,153.93l-3.8-10.5h-20.9l-3.8,10.5h-4.6l16.5-44.8h4.7l16.4,44.8Zm-23.4-14.1h18.3l-9.1-25.1Z" transform="translate(-22 -10.47)"/><path class="cls-3" d="M1327.4,118.43v5.8c1.9-4.3,5.6-6.5,11-6.5v4.7H1337c-3.1,0-5.5.8-7.2,2.5s-2.5,4.6-2.5,8.7v20.1h-4.5v-35.5h4.6Z" transform="translate(-22 -10.47)"/><path class="cls-3" d="M1351.4,108.33a3.58,3.58,0,0,1-.9,2.4,3,3,0,0,1-2.3,1,3.35,3.35,0,1,1-.3-6.7h.4a2.9,2.9,0,0,1,2.3,1A3.78,3.78,0,0,1,1351.4,108.33Zm-5.6,45.6v-35.5h4.5v35.5Z" transform="translate(-22 -10.47)"/><path class="cls-3" d="M1380.9,118.43V122l-18.1,28.3h18.1v3.6h-23.1v-3.6l18.1-28.3h-18.1v-3.6Z" transform="translate(-22 -10.47)"/><path class="cls-3" d="M1403.4,154.53a16.1,16.1,0,0,1-12.4-5.1c-3.2-3.4-4.8-7.8-4.8-13.3a17.82,17.82,0,0,1,30.5-13.4c3.4,3.4,5.1,7.8,5.1,13.3a17.86,17.86,0,0,1-5.3,13.3A18.61,18.61,0,0,1,1403.4,154.53Zm0-3.6a13.07,13.07,0,0,0,9.5-4c2.7-2.7,4-6.3,4-10.8s-1.3-8.1-3.8-10.8a12.24,12.24,0,0,0-9.4-3.9,11.82,11.82,0,0,0-9.2,3.9c-2.5,2.6-3.7,6.2-3.7,10.8s1.2,8.2,3.5,10.9a12,12,0,0,0,9.1,3.9Z" transform="translate(-22 -10.47)"/><path class="cls-3" d="M1433.7,118.43v5.8c2.4-4.3,6.3-6.4,11.8-6.4a13.65,13.65,0,0,1,9.9,3.9c2.7,2.6,4,6.3,4,11.1v21.1h-4.5v-20.3c0-3.9-.9-6.9-2.8-8.9a11.3,11.3,0,0,0-15.5,0c-1.9,2-2.8,5-2.8,8.9v20.3h-4.5v-35.5Z" transform="translate(-22 -10.47)"/><path class="cls-3" d="M1471.3,149.23a19.21,19.21,0,0,1-4.9-13.4c0-5.4,1.6-9.8,4.8-13.1a16.67,16.67,0,0,1,12.3-5,16,16,0,0,1,8.5,2.3,14.27,14.27,0,0,1,5.4,6v-7.7h4.6v35.5h-4.5V146a15.16,15.16,0,0,1-5.4,6.1,16.66,16.66,0,0,1-20.8-2.9Zm22.3-2.6a16.08,16.08,0,0,0,0-21,12.63,12.63,0,0,0-9.3-4,12.45,12.45,0,0,0-9.3,3.8c-2.6,2.6-3.8,6-3.8,10.4a14.67,14.67,0,0,0,3.9,10.7,11.87,11.87,0,0,0,9.3,4.1,12.21,12.21,0,0,0,9.2-4Z" transform="translate(-22 -10.47)"/></svg>