<?xml version="1.0" encoding="utf-8"?>
<!-- Generator: Adobe Illustrator 23.0.2, SVG Export Plug-In . SVG Version: 6.00 Build 0)  -->
<svg version="1.1" id="Layer_1" xmlns="http://www.w3.org/2000/svg" xmlns:xlink="http://www.w3.org/1999/xlink" x="0px" y="0px"
	 viewBox="0 0 960 173" style="enable-background:new 0 0 960 173;" xml:space="preserve">
<style type="text/css">
	.st0{fill:#FFFFFF;}
	.st1{fill:none;stroke:#FFFFFF;stroke-width:2;}
</style>
<title>logo</title>
<path class="st0" d="M28.2,79.6V20.3h14.1v59.3H28.2z"/>
<path class="st0" d="M65.1,32.5v6.9C68,34.5,72.6,32,79,32c4.9-0.2,9.6,1.8,12.9,5.4c3.3,3.6,4.9,8.5,4.9,14.7v27.5h-14V54
	c0-3-0.8-5.4-2.4-7.1c-1.7-1.7-4.1-2.6-6.5-2.5c-2.4-0.1-4.8,0.8-6.5,2.6c-1.6,1.6-2.4,4-2.4,7v25.6H50.9V32.5H65.1z"/>
<path class="st0" d="M124.6,67.4h5v12.3h-7.2c-5.2,0-9.2-1.2-12-3.5s-4.2-6.3-4.3-12V44.5h-4.3v-12h4.3V21h14.2v11.5h9.3v12h-9.3
	v19.6C120.3,66.3,121.7,67.4,124.6,67.4z"/>
<path class="st0" d="M155.1,80.2c-6.7,0-12.2-2.2-16.5-6.6s-6.4-10.3-6.5-17.6c0-7.3,2.1-13.2,6.4-17.5s9.8-6.5,16.6-6.5
	s12.4,2.1,16.9,6.4s6.7,10.2,6.7,17.8c0,1.5-0.1,3.1-0.3,4.6h-31.8c0.2,2,1.2,3.8,2.7,5.1c1.4,1.3,3.1,2,5,2c1.4,0.1,2.7-0.1,4-0.6
	c0.7-0.3,1.4-0.6,1.9-1.1c0.6-0.6,1.1-1.2,1.6-1.8h15.3c-1.2,4.6-4.1,8.7-7.9,11.4C165.1,78.8,160.2,80.3,155.1,80.2z M161.1,46.4
	c-1.6-1.4-3.7-2.1-5.9-2.1c-2.1-0.1-4.1,0.7-5.7,2.1c-1.6,1.4-2.6,3.3-2.9,5.4h17.3C163.8,49.7,162.8,47.7,161.1,46.4L161.1,46.4z"
	/>
<path class="st0" d="M198.1,32.5v8.8c3.3-6.2,7.7-9.3,13.2-9.3v14.7h-3.5c-3.3,0-5.7,0.8-7.3,2.4c-1.6,1.6-2.4,4.3-2.4,8.3v22.3H184
	V32.5H198.1z"/>
<path class="st0" d="M229.3,32.5v6.9c2.9-5,7.6-7.4,14-7.4c4.9-0.2,9.6,1.8,12.9,5.4c3.3,3.6,4.9,8.5,4.9,14.7v27.6H247V54
	c0-3-0.8-5.4-2.4-7.1c-3.7-3.3-9.3-3.3-13,0c-1.6,1.7-2.4,4-2.4,7.1v25.6h-14.1V32.5H229.3z"/>
<path class="st0" d="M272,73.5c-4.1-4.5-6.1-10.3-6.1-17.3s2-12.8,6.1-17.4c3.7-4.4,9.2-6.8,14.9-6.8c5.9,0,10.4,2.2,13.5,6.7v-6.2
	h14.1v47.1h-14.1v-6.8c-3.4,5-8,7.4-13.7,7.4C281.1,80.3,275.7,77.8,272,73.5z M297.4,64.7c2-2,3.1-4.9,3.1-8.6s-1-6.6-3.1-8.6
	c-3.7-3.9-9.8-4-13.7-0.4c-0.1,0.1-0.2,0.2-0.4,0.4c-2,2-3.1,4.9-3.1,8.6s1,6.6,3.1,8.6c3.7,3.9,9.8,4,13.7,0.4
	C297.1,64.9,297.3,64.8,297.4,64.7z"/>
<path class="st0" d="M342.8,67.4h5v12.3h-7.2c-5.2,0-9.2-1.2-12-3.5s-4.2-6.3-4.3-12V44.5H320v-12h4.3V21h14.1v11.5h9.3v12h-9.3
	v19.6C338.5,66.3,339.9,67.4,342.8,67.4z"/>
<path class="st0" d="M366.6,27.1c-3.2,3.2-8.4,3.3-11.7,0.1c0,0,0,0-0.1-0.1c-1.6-1.6-2.4-3.8-2.4-6s0.8-4.4,2.4-6
	c3.2-3.2,8.4-3.3,11.7-0.1c0,0,0,0,0.1,0.1c1.6,1.6,2.4,3.8,2.4,6C369,23.4,368.2,25.6,366.6,27.1z M353.7,79.6V32.5h14.1v47.1
	H353.7z"/>
<path class="st0" d="M380.1,73.5c-4.7-4.4-7-10.3-7-17.6s2.3-13.1,6.9-17.5c9.8-8.7,24.6-8.7,34.4,0c4.6,4.4,6.9,10.2,6.9,17.5
	S419,69,414.4,73.5c-4.6,4.4-10.7,6.9-17.1,6.7C390.9,80.4,384.7,78,380.1,73.5z M404.1,64.8c1.9-2,2.8-4.9,2.8-8.8s-1-6.8-2.9-8.8
	c-1.8-1.9-4.3-3-6.9-3s-5.1,1.1-6.8,3c-1.9,2-2.9,4.9-2.9,8.8s1,6.8,2.9,8.8c1.8,1.9,4.3,3,6.9,3C399.9,67.9,402.4,66.8,404.1,64.8
	L404.1,64.8z"/>
<path class="st0" d="M440.7,32.5v6.9c2.9-5,7.6-7.4,14-7.4c4.9-0.2,9.6,1.8,12.9,5.4c3.3,3.6,4.9,8.5,4.9,14.7v27.6h-14.1V54
	c0-3-0.8-5.4-2.4-7.1c-3.7-3.3-9.3-3.3-13,0c-1.6,1.7-2.4,4-2.4,7.1v25.6h-14.1V32.5H440.7z"/>
<path class="st0" d="M483.4,73.5c-4.1-4.5-6.1-10.3-6.1-17.3s2-12.8,6.1-17.4c3.7-4.4,9.2-6.8,14.9-6.8c5.9,0,10.4,2.2,13.5,6.7
	v-6.2H526v47.1h-14.2v-6.8c-3.4,5-8,7.4-13.7,7.4C492.4,80.3,487.1,77.8,483.4,73.5z M508.8,64.7c2-2,3.1-4.9,3.1-8.6
	c0-3.7-1-6.6-3.1-8.6c-3.7-3.9-9.8-4-13.7-0.4c-0.1,0.1-0.2,0.2-0.4,0.4c-2,2-3.1,4.9-3.1,8.6s1,6.6,3.1,8.6c3.7,3.9,9.8,4,13.7,0.4
	C508.5,64.9,508.7,64.8,508.8,64.7z"/>
<path class="st0" d="M534.6,79.6V17.1h14.1v62.5H534.6z"/>
<path class="st0" d="M578.3,79.6V20.3h37.8v11h-23.6V44h17.7v11h-17.7v24.6H578.3z"/>
<path class="st0" d="M636.2,32.5v8.8c3.3-6.2,7.7-9.3,13.2-9.3v14.7h-3.5c-3.3,0-5.7,0.8-7.3,2.4s-2.4,4.3-2.4,8.3v22.3H622V32.5
	H636.2z"/>
<path class="st0" d="M666.2,27.1c-3.2,3.2-8.4,3.3-11.7,0.1c0,0,0,0-0.1-0.1c-1.6-1.6-2.4-3.8-2.4-6s0.8-4.4,2.4-6
	c3.2-3.2,8.4-3.3,11.7-0.1c0,0,0,0,0.1,0.1c1.6,1.6,2.4,3.8,2.4,6C668.6,23.4,667.8,25.6,666.2,27.1z M653.3,79.6V32.5h14.1v47.1
	H653.3z"/>
<path class="st0" d="M695.6,80.2c-6.7,0-12.2-2.2-16.5-6.6s-6.4-10.3-6.4-17.6s2.1-13.2,6.4-17.5s9.8-6.5,16.6-6.5
	s12.4,2.1,16.9,6.4s6.7,10.2,6.7,17.8c0,1.5-0.1,3.1-0.3,4.6h-31.8c0.2,2,1.2,3.8,2.7,5.1c1.4,1.3,3.1,2,5,2c1.4,0.1,2.7-0.1,4-0.6
	c0.7-0.3,1.4-0.6,1.9-1.1c0.6-0.6,1.1-1.2,1.6-1.8h15.3c-1.2,4.6-4.1,8.7-7.9,11.4C705.6,78.8,700.7,80.3,695.6,80.2z M701.6,46.4
	c-1.6-1.4-3.7-2.1-5.9-2.1c-2.1-0.1-4.1,0.7-5.7,2.1c-1.6,1.4-2.6,3.3-2.9,5.4h17.3C704.3,49.7,703.3,47.7,701.6,46.4L701.6,46.4z"
	/>
<path class="st0" d="M738.6,32.5v6.9c2.9-4.9,7.6-7.4,14-7.4c4.9-0.2,9.6,1.8,12.9,5.4c3.3,3.6,4.9,8.5,4.9,14.7v27.5h-14.1V54
	c0-3-0.8-5.4-2.4-7.1c-3.7-3.3-9.3-3.3-13,0c-1.6,1.7-2.3,4-2.3,7.1v25.6h-14.1V32.5H738.6z"/>
<path class="st0" d="M781.3,73.5c-4.1-4.5-6.1-10.3-6.1-17.3s2-12.8,6.1-17.4c3.7-4.4,9.2-6.8,14.9-6.8c5.9,0,10.4,2.2,13.5,6.7
	V17.1h14.1v62.5h-14.1v-6.8c-3.4,5-8,7.4-13.7,7.4C790.3,80.3,784.9,77.8,781.3,73.5z M806.6,64.7c2-2,3.1-4.9,3.1-8.6
	s-1-6.6-3.1-8.6c-3.7-3.9-9.8-4-13.7-0.4c-0.1,0.1-0.2,0.2-0.4,0.4c-2,2-3.1,4.9-3.1,8.6s1,6.6,3.1,8.6c3.7,3.9,9.8,4,13.7,0.4
	C806.4,64.9,806.5,64.8,806.6,64.7z"/>
<path class="st0" d="M829.3,46.7c0-4.1,1.9-8,5.2-10.5c3.5-2.8,8.2-4.2,14.1-4.2c5.9,0,10.7,1.4,14.3,4.1c3.6,2.7,5.7,6.9,5.8,11.3
	h-14.5c0-1.3-0.6-2.5-1.7-3.3c-1.3-0.7-2.8-1-4.2-0.9c-3.7,0-5.5,1.2-5.5,3.5c0,2.1,2.3,3.5,6.8,4.3c4.3,0.7,8.5,1.9,12.5,3.6
	c2,0.8,3.6,2.2,4.8,3.9c1.3,2,2,4.3,1.9,6.7c0,4.3-2,8.3-5.5,10.7c-3.7,2.8-8.4,4.2-14,4.2s-10.3-1.3-14-3.9s-5.8-6.5-6.1-11.6h14.5
	c0.4,2.9,2.4,4.3,6,4.3c1.5,0.1,2.9-0.4,4.1-1.2c1-0.7,1.6-1.8,1.6-3c0-1.2-0.9-2.2-2.7-3c-2.1-0.8-4.3-1.4-6.5-1.9
	c-2.5-0.5-5.1-1.1-7.7-1.9c-2.5-0.7-4.8-2.1-6.5-4C830.2,52,829.2,49.4,829.3,46.7z"/>
<line class="st1" x1="22" y1="95" x2="933" y2="95"/>
<path class="st0" d="M25.2,114.9v-3.7h28v3.7H41.4V156H37v-41.1H25.2z"/>
<path class="st0" d="M81.3,120.6h4.6v35.5h-4.6v-5.8c-2.4,4.3-6.3,6.4-11.8,6.4c-3.7,0.1-7.2-1.3-9.9-3.9c-2.7-2.6-4-6.3-4-11.1
	v-21.1h4.5v20.3c0,3.9,0.9,6.9,2.8,8.9c2,2.1,4.8,3.2,7.7,3.1c2.9,0.2,5.7-1,7.7-3.1c1.9-2,2.8-5,2.8-8.9L81.3,120.6z"/>
<path class="st0" d="M98.1,151.6c-3.2-3.4-4.7-7.8-4.7-13.3s1.6-9.9,4.7-13.3c3.2-3.4,7.7-5.2,12.3-5.1c8.3,0,13.6,3.7,15.9,11.2
	h-4.9c-0.6-2.2-2-4.2-3.9-5.6c-2.1-1.4-4.5-2.1-7.1-2c-3.4-0.1-6.7,1.3-9,3.8c-2.3,2.5-3.5,6.2-3.5,10.9s1.1,8.4,3.4,11s5.6,4,9,3.8
	c2.5,0.1,5-0.6,7.1-2c1.9-1.4,3.3-3.3,3.9-5.6h4.9c-1,3.2-3,6-5.7,8.1c-3,2.1-6.6,3.2-10.2,3.1C105.8,156.9,101.3,155,98.1,151.6z"
	/>
<path class="st0" d="M133.6,130.4c0-2.9,1.3-5.7,3.6-7.4c2.6-2.1,5.9-3.1,9.3-3c3.8,0,6.7,1,8.8,3c2.2,2.2,3.4,5.1,3.5,8.2h-4.7
	c0-4.1-3.2-7.5-7.3-7.5c-0.2,0-0.4,0-0.7,0c-2.1-0.1-4.2,0.5-5.8,1.8c-1.3,1.1-2.1,2.7-2.1,4.4c-0.1,1.5,0.5,3,1.6,4.1
	c1.1,1,2.5,1.7,3.9,2c1.6,0.3,3.3,0.8,5.1,1.2s3.6,1,5.1,1.5c1.6,0.5,3,1.6,3.9,2.9c1.1,1.6,1.6,3.5,1.6,5.4c0,2.8-1.3,5.4-3.6,7
	c-2.7,1.9-6,2.9-9.4,2.7c-3.9,0-6.9-1-9.2-3c-2.3-2.1-3.6-5-3.7-8.1h4.7c0,2,0.9,4,2.3,5.4c1.7,1.5,3.9,2.2,6.1,2.1
	c2.1,0.1,4.2-0.5,6-1.7c1.4-1,2.2-2.6,2.1-4.3c0.1-1.5-0.5-3-1.6-4.1c-1.1-1-2.5-1.7-3.9-2c-1.6-0.4-3.3-0.8-5.1-1.3s-3.6-1-5.1-1.5
	C135.7,137.3,133.5,134,133.6,130.4L133.6,130.4z"/>
<path class="st0" d="M183.2,156.7c-4.7,0.2-9.2-1.7-12.4-5.1c-3.2-3.4-4.8-7.8-4.8-13.3s1.7-9.9,5.1-13.4c7.1-6.8,18.3-6.8,25.4,0
	c3.4,3.4,5.1,7.8,5.1,13.3c0.2,5-1.8,9.8-5.3,13.3C192.7,154.9,188.1,156.8,183.2,156.7z M183.2,153.1c3.6,0,7-1.4,9.6-4
	c2.7-2.7,4-6.3,4-10.8s-1.3-8.1-3.8-10.8c-2.4-2.6-5.8-4-9.4-3.9c-3.5-0.1-6.9,1.3-9.2,3.9c-2.5,2.6-3.7,6.2-3.7,10.8
	s1.2,8.2,3.5,10.9C176.4,151.7,179.7,153.2,183.2,153.1L183.2,153.1z"/>
<path class="st0" d="M213.5,120.6v5.8c2.4-4.3,6.3-6.4,11.8-6.4c3.7-0.1,7.2,1.3,9.9,3.9s4,6.3,4,11.1v21.1h-4.5v-20.3
	c0-3.9-0.9-6.9-2.8-8.9c-4.4-4.1-11.1-4.1-15.5,0c-1.9,2-2.8,5-2.8,8.9v20.3H209v-35.5C209,120.6,213.5,120.6,213.5,120.6z"/>
<path class="st0" d="M246.4,152.4h5.3c0.9,4.5,0.8,7.6-0.1,9.5c-0.9,1.8-2.7,2.8-5.3,2.8v-2.5c2,0,3-1.1,3-3.2v-1.6h-2.9V152.4z"/>
<path class="st0" d="M310.9,156.1l-3.8-10.5h-20.9l-3.8,10.5h-4.6l16.5-44.8h4.7l16.4,44.8H310.9z M287.5,142h18.3l-9.1-25.1
	L287.5,142z"/>
<path class="st0" d="M326.4,120.6v5.8c1.9-4.3,5.6-6.5,11-6.5v4.7H336c-3.1,0-5.5,0.8-7.2,2.5c-1.7,1.7-2.5,4.6-2.5,8.7v20.1h-4.5
	v-35.5h4.6V120.6z"/>
<path class="st0" d="M350.4,110.5c0,0.9-0.3,1.7-0.9,2.4c-0.6,0.7-1.5,1-2.3,1c-1.8,0.1-3.4-1.3-3.5-3.2c-0.1-1.8,1.3-3.4,3.2-3.5
	c0.1,0,0.2,0,0.4,0c0.9,0,1.7,0.3,2.3,1C350.1,108.8,350.4,109.7,350.4,110.5z M344.8,156.1v-35.5h4.5v35.5H344.8z"/>
<path class="st0" d="M379.9,120.6v3.6l-18.1,28.3h18.1v3.6h-23.1v-3.6l18.1-28.3h-18.1v-3.6H379.9z"/>
<path class="st0" d="M402.4,156.7c-4.7,0.2-9.2-1.7-12.4-5.1c-3.2-3.4-4.8-7.8-4.8-13.3s1.7-9.9,5.1-13.4c7.1-6.8,18.3-6.8,25.4,0
	c3.4,3.4,5.1,7.8,5.1,13.3c0.2,5-1.8,9.8-5.3,13.3C411.9,154.9,407.2,156.8,402.4,156.7z M402.4,153.1c3.6,0,7-1.4,9.5-4
	c2.7-2.7,4-6.3,4-10.8s-1.3-8.1-3.8-10.8c-2.4-2.6-5.8-4-9.4-3.9c-3.5-0.1-6.9,1.3-9.2,3.9c-2.5,2.6-3.7,6.2-3.7,10.8
	s1.2,8.2,3.5,10.9C395.6,151.7,398.9,153.2,402.4,153.1L402.4,153.1z"/>
<path class="st0" d="M432.7,120.6v5.8c2.4-4.3,6.3-6.4,11.8-6.4c3.7-0.1,7.2,1.3,9.9,3.9c2.7,2.6,4,6.3,4,11.1v21.1h-4.5v-20.3
	c0-3.9-0.9-6.9-2.8-8.9c-4.4-4.1-11.1-4.1-15.5,0c-1.9,2-2.8,5-2.8,8.9v20.3h-4.5v-35.5C428.3,120.6,432.7,120.6,432.7,120.6z"/>
<path class="st0" d="M470.3,151.4c-3.2-3.5-4.9-8-4.9-13.4s1.6-9.8,4.8-13.1c3.2-3.3,7.7-5.1,12.3-5c3-0.1,5.9,0.8,8.5,2.3
	c2.3,1.4,4.2,3.5,5.4,6v-7.7h4.6V156h-4.5v-7.8c-1.2,2.5-3.1,4.6-5.4,6.1c-2.5,1.6-5.5,2.4-8.5,2.4
	C477.9,156.8,473.4,154.9,470.3,151.4z M492.6,148.8c5.2-6,5.2-15,0-21c-2.4-2.6-5.8-4-9.3-4c-3.5-0.1-6.9,1.3-9.3,3.8
	c-2.6,2.6-3.8,6-3.8,10.4c-0.2,3.9,1.2,7.8,3.9,10.7c2.4,2.7,5.7,4.2,9.3,4.1C486.8,152.9,490.2,151.4,492.6,148.8L492.6,148.8z"/>
</svg>
