<?xml version="1.0" encoding="utf-8"?>
<!-- Generator: Adobe Illustrator 23.0.3, SVG Export Plug-In . SVG Version: 6.00 Build 0)  -->
<svg version="1.1" id="Layer_1" xmlns="http://www.w3.org/2000/svg" xmlns:xlink="http://www.w3.org/1999/xlink" x="0px" y="0px"
	 viewBox="0 0 960 173" style="enable-background:new 0 0 960 173;" xml:space="preserve">
<style type="text/css">
	.st0{fill:#FFFFFF;}
	.st1{fill:none;stroke:#FFFFFF;stroke-width:2;}
	.st2{fill:#212B40;}
	.st3{fill:#212B40;stroke:#212B40;stroke-width:2;}
</style>
<title>logo</title>
<path class="st0" d="M-951.8,79.6V20.3h14.1v59.3H-951.8z"/>
<path class="st0" d="M-914.9,32.5v6.9c2.9-4.9,7.5-7.4,13.9-7.4c4.9-0.2,9.6,1.8,12.9,5.4c3.3,3.6,4.9,8.5,4.9,14.7v27.5h-14V54
	c0-3-0.8-5.4-2.4-7.1c-1.7-1.7-4.1-2.6-6.5-2.5c-2.4-0.1-4.8,0.8-6.5,2.6c-1.6,1.6-2.4,4-2.4,7v25.6h-14.1V32.5H-914.9z"/>
<path class="st0" d="M-855.4,67.4h5v12.3h-7.2c-5.2,0-9.2-1.2-12-3.5c-2.8-2.3-4.2-6.3-4.3-12V44.5h-4.3v-12h4.3V21h14.2v11.5h9.3
	v12h-9.3v19.6C-859.7,66.3-858.3,67.4-855.4,67.4z"/>
<path class="st0" d="M-824.9,80.2c-6.7,0-12.2-2.2-16.5-6.6c-4.3-4.4-6.4-10.3-6.5-17.6c0-7.3,2.1-13.2,6.4-17.5s9.8-6.5,16.6-6.5
	c6.8,0,12.4,2.1,16.9,6.4s6.7,10.2,6.7,17.8c0,1.5-0.1,3.1-0.3,4.6h-31.8c0.2,2,1.2,3.8,2.7,5.1c1.4,1.3,3.1,2,5,2
	c1.4,0.1,2.7-0.1,4-0.6c0.7-0.3,1.4-0.6,1.9-1.1c0.6-0.6,1.1-1.2,1.6-1.8h15.3c-1.2,4.6-4.1,8.7-7.9,11.4
	C-814.9,78.8-819.8,80.3-824.9,80.2z M-818.9,46.4c-1.6-1.4-3.7-2.1-5.9-2.1c-2.1-0.1-4.1,0.7-5.7,2.1c-1.6,1.4-2.6,3.3-2.9,5.4
	h17.3C-816.2,49.7-817.2,47.7-818.9,46.4L-818.9,46.4z"/>
<path class="st0" d="M-781.9,32.5v8.8c3.3-6.2,7.7-9.3,13.2-9.3v14.7h-3.5c-3.3,0-5.7,0.8-7.3,2.4c-1.6,1.6-2.4,4.3-2.4,8.3v22.3
	H-796V32.5H-781.9z"/>
<path class="st0" d="M-750.7,32.5v6.9c2.9-5,7.6-7.4,14-7.4c4.9-0.2,9.6,1.8,12.9,5.4c3.3,3.6,4.9,8.5,4.9,14.7v27.6H-733V54
	c0-3-0.8-5.4-2.4-7.1c-3.7-3.3-9.3-3.3-13,0c-1.6,1.7-2.4,4-2.4,7.1v25.6h-14.1V32.5H-750.7z"/>
<path class="st0" d="M-708,73.5c-4.1-4.5-6.1-10.3-6.1-17.3s2-12.8,6.1-17.4c3.7-4.4,9.2-6.8,14.9-6.8c5.9,0,10.4,2.2,13.5,6.7v-6.2
	h14.1v47.1h-14.1v-6.8c-3.4,5-8,7.4-13.7,7.4C-698.9,80.3-704.3,77.8-708,73.5z M-682.6,64.7c2-2,3.1-4.9,3.1-8.6s-1-6.6-3.1-8.6
	c-3.7-3.9-9.8-4-13.7-0.4c-0.1,0.1-0.2,0.2-0.4,0.4c-2,2-3.1,4.9-3.1,8.6s1,6.6,3.1,8.6c3.7,3.9,9.8,4,13.7,0.4
	C-682.9,64.9-682.7,64.8-682.6,64.7z"/>
<path class="st0" d="M-637.2,67.4h5v12.3h-7.2c-5.2,0-9.2-1.2-12-3.5s-4.2-6.3-4.3-12V44.5h-4.3v-12h4.3V21h14.1v11.5h9.3v12h-9.3
	v19.6C-641.5,66.3-640.1,67.4-637.2,67.4z"/>
<path class="st0" d="M-613.4,27.1c-3.2,3.2-8.4,3.3-11.7,0.1c0,0,0,0-0.1-0.1c-1.6-1.6-2.4-3.8-2.4-6s0.8-4.4,2.4-6
	c3.2-3.2,8.4-3.3,11.7-0.1c0,0,0,0,0.1,0.1c1.6,1.6,2.4,3.8,2.4,6C-611,23.4-611.8,25.6-613.4,27.1z M-626.3,79.6V32.5h14.1v47.1
	H-626.3z"/>
<path class="st0" d="M-599.9,73.5c-4.7-4.4-7-10.3-7-17.6s2.3-13.1,6.9-17.5c9.8-8.7,24.6-8.7,34.4,0c4.6,4.4,6.9,10.2,6.9,17.5
	s-2.3,13.1-6.9,17.6c-4.6,4.4-10.7,6.9-17.1,6.7C-589.1,80.4-595.3,78-599.9,73.5z M-575.9,64.8c1.9-2,2.8-4.9,2.8-8.8
	s-1-6.8-2.9-8.8c-1.8-1.9-4.3-3-6.9-3c-2.6,0-5.1,1.1-6.8,3c-1.9,2-2.9,4.9-2.9,8.8s1,6.8,2.9,8.8c1.8,1.9,4.3,3,6.9,3
	C-580.1,67.9-577.6,66.8-575.9,64.8L-575.9,64.8z"/>
<path class="st0" d="M-539.3,32.5v6.9c2.9-5,7.6-7.4,14-7.4c4.9-0.2,9.6,1.8,12.9,5.4c3.3,3.6,4.9,8.5,4.9,14.7v27.6h-14.1V54
	c0-3-0.8-5.4-2.4-7.1c-3.7-3.3-9.3-3.3-13,0c-1.6,1.7-2.4,4-2.4,7.1v25.6h-14.1V32.5H-539.3z"/>
<path class="st0" d="M-496.6,73.5c-4.1-4.5-6.1-10.3-6.1-17.3s2-12.8,6.1-17.4c3.7-4.4,9.2-6.8,14.9-6.8c5.9,0,10.4,2.2,13.5,6.7
	v-6.2h14.2v47.1h-14.2v-6.8c-3.4,5-8,7.4-13.7,7.4C-487.6,80.3-492.9,77.8-496.6,73.5z M-471.2,64.7c2-2,3.1-4.9,3.1-8.6
	c0-3.7-1-6.6-3.1-8.6c-3.7-3.9-9.8-4-13.7-0.4c-0.1,0.1-0.2,0.2-0.4,0.4c-2,2-3.1,4.9-3.1,8.6s1,6.6,3.1,8.6c3.7,3.9,9.8,4,13.7,0.4
	C-471.5,64.9-471.3,64.8-471.2,64.7z"/>
<path class="st0" d="M-445.4,79.6V17.1h14.1v62.5H-445.4z"/>
<path class="st0" d="M-401.7,79.6V20.3h37.8v11h-23.6V44h17.7v11h-17.7v24.6H-401.7z"/>
<path class="st0" d="M-343.8,32.5v8.8c3.3-6.2,7.7-9.3,13.2-9.3v14.7h-3.5c-3.3,0-5.7,0.8-7.3,2.4s-2.4,4.3-2.4,8.3v22.3H-358V32.5
	H-343.8z"/>
<path class="st0" d="M-313.8,27.1c-3.2,3.2-8.4,3.3-11.7,0.1c0,0,0,0-0.1-0.1c-1.6-1.6-2.4-3.8-2.4-6s0.8-4.4,2.4-6
	c3.2-3.2,8.4-3.3,11.7-0.1c0,0,0,0,0.1,0.1c1.6,1.6,2.4,3.8,2.4,6C-311.4,23.4-312.2,25.6-313.8,27.1z M-326.7,79.6V32.5h14.1v47.1
	H-326.7z"/>
<path class="st0" d="M-284.4,80.2c-6.7,0-12.2-2.2-16.5-6.6s-6.4-10.3-6.4-17.6s2.1-13.2,6.4-17.5s9.8-6.5,16.6-6.5
	s12.4,2.1,16.9,6.4s6.7,10.2,6.7,17.8c0,1.5-0.1,3.1-0.3,4.6h-31.8c0.2,2,1.2,3.8,2.7,5.1c1.4,1.3,3.1,2,5,2c1.4,0.1,2.7-0.1,4-0.6
	c0.7-0.3,1.4-0.6,1.9-1.1c0.6-0.6,1.1-1.2,1.6-1.8h15.3c-1.2,4.6-4.1,8.7-7.9,11.4C-274.4,78.8-279.3,80.3-284.4,80.2z M-278.4,46.4
	c-1.6-1.4-3.7-2.1-5.9-2.1c-2.1-0.1-4.1,0.7-5.7,2.1c-1.6,1.4-2.6,3.3-2.9,5.4h17.3C-275.7,49.7-276.7,47.7-278.4,46.4L-278.4,46.4z
	"/>
<path class="st0" d="M-241.4,32.5v6.9c2.9-4.9,7.6-7.4,14-7.4c4.9-0.2,9.6,1.8,12.9,5.4c3.3,3.6,4.9,8.5,4.9,14.7v27.5h-14.1V54
	c0-3-0.8-5.4-2.4-7.1c-3.7-3.3-9.3-3.3-13,0c-1.6,1.7-2.3,4-2.3,7.1v25.6h-14.1V32.5H-241.4z"/>
<path class="st0" d="M-198.7,73.5c-4.1-4.5-6.1-10.3-6.1-17.3s2-12.8,6.1-17.4c3.7-4.4,9.2-6.8,14.9-6.8c5.9,0,10.4,2.2,13.5,6.7
	V17.1h14.1v62.5h-14.1v-6.8c-3.4,5-8,7.4-13.7,7.4C-189.7,80.3-195.1,77.8-198.7,73.5z M-173.4,64.7c2-2,3.1-4.9,3.1-8.6
	s-1-6.6-3.1-8.6c-3.7-3.9-9.8-4-13.7-0.4c-0.1,0.1-0.2,0.2-0.4,0.4c-2,2-3.1,4.9-3.1,8.6s1,6.6,3.1,8.6c3.7,3.9,9.8,4,13.7,0.4
	C-173.6,64.9-173.5,64.8-173.4,64.7z"/>
<path class="st0" d="M-150.7,46.7c0-4.1,1.9-8,5.2-10.5c3.5-2.8,8.2-4.2,14.1-4.2c5.9,0,10.7,1.4,14.3,4.1c3.6,2.7,5.7,6.9,5.8,11.3
	h-14.5c0-1.3-0.6-2.5-1.7-3.3c-1.3-0.7-2.8-1-4.2-0.9c-3.7,0-5.5,1.2-5.5,3.5c0,2.1,2.3,3.5,6.8,4.3c4.3,0.7,8.5,1.9,12.5,3.6
	c2,0.8,3.6,2.2,4.8,3.9c1.3,2,2,4.3,1.9,6.7c0,4.3-2,8.3-5.5,10.7c-3.7,2.8-8.4,4.2-14,4.2s-10.3-1.3-14-3.9s-5.8-6.5-6.1-11.6h14.5
	c0.4,2.9,2.4,4.3,6,4.3c1.5,0.1,2.9-0.4,4.1-1.2c1-0.7,1.6-1.8,1.6-3c0-1.2-0.9-2.2-2.7-3c-2.1-0.8-4.3-1.4-6.5-1.9
	c-2.5-0.5-5.1-1.1-7.7-1.9c-2.5-0.7-4.8-2.1-6.5-4C-149.8,52-150.8,49.4-150.7,46.7z"/>
<line class="st1" x1="-958" y1="95" x2="-47" y2="95"/>
<path class="st0" d="M-954.8,114.9v-3.7h28v3.7h-11.8V156h-4.4v-41.1H-954.8z"/>
<path class="st0" d="M-898.7,120.6h4.6v35.5h-4.6v-5.8c-2.4,4.3-6.3,6.4-11.8,6.4c-3.7,0.1-7.2-1.3-9.9-3.9c-2.7-2.6-4-6.3-4-11.1
	v-21.1h4.5v20.3c0,3.9,0.9,6.9,2.8,8.9c2,2.1,4.8,3.2,7.7,3.1c2.9,0.2,5.7-1,7.7-3.1c1.9-2,2.8-5,2.8-8.9L-898.7,120.6z"/>
<path class="st0" d="M-881.9,151.6c-3.2-3.4-4.7-7.8-4.7-13.3s1.6-9.9,4.7-13.3c3.2-3.4,7.7-5.2,12.3-5.1c8.3,0,13.6,3.7,15.9,11.2
	h-4.9c-0.6-2.2-2-4.2-3.9-5.6c-2.1-1.4-4.5-2.1-7.1-2c-3.4-0.1-6.7,1.3-9,3.8c-2.3,2.5-3.5,6.2-3.5,10.9s1.1,8.4,3.4,11s5.6,4,9,3.8
	c2.5,0.1,5-0.6,7.1-2c1.9-1.4,3.3-3.3,3.9-5.6h4.9c-1,3.2-3,6-5.7,8.1c-3,2.1-6.6,3.2-10.2,3.1C-874.2,156.9-878.7,155-881.9,151.6z
	"/>
<path class="st0" d="M-846.4,130.4c0-2.9,1.3-5.7,3.6-7.4c2.6-2.1,5.9-3.1,9.3-3c3.8,0,6.7,1,8.8,3c2.2,2.2,3.4,5.1,3.5,8.2h-4.7
	c0-4.1-3.2-7.5-7.3-7.5c-0.2,0-0.4,0-0.7,0c-2.1-0.1-4.2,0.5-5.8,1.8c-1.3,1.1-2.1,2.7-2.1,4.4c-0.1,1.5,0.5,3,1.6,4.1
	c1.1,1,2.5,1.7,3.9,2c1.6,0.3,3.3,0.8,5.1,1.2c1.8,0.4,3.6,1,5.1,1.5c1.6,0.5,3,1.6,3.9,2.9c1.1,1.6,1.6,3.5,1.6,5.4
	c0,2.8-1.3,5.4-3.6,7c-2.7,1.9-6,2.9-9.4,2.7c-3.9,0-6.9-1-9.2-3c-2.3-2.1-3.6-5-3.7-8.1h4.7c0,2,0.9,4,2.3,5.4
	c1.7,1.5,3.9,2.2,6.1,2.1c2.1,0.1,4.2-0.5,6-1.7c1.4-1,2.2-2.6,2.1-4.3c0.1-1.5-0.5-3-1.6-4.1c-1.1-1-2.5-1.7-3.9-2
	c-1.6-0.4-3.3-0.8-5.1-1.3s-3.6-1-5.1-1.5C-844.3,137.3-846.5,134-846.4,130.4L-846.4,130.4z"/>
<path class="st0" d="M-796.8,156.7c-4.7,0.2-9.2-1.7-12.4-5.1c-3.2-3.4-4.8-7.8-4.8-13.3s1.7-9.9,5.1-13.4c7.1-6.8,18.3-6.8,25.4,0
	c3.4,3.4,5.1,7.8,5.1,13.3c0.2,5-1.8,9.8-5.3,13.3C-787.3,154.9-791.9,156.8-796.8,156.7z M-796.8,153.1c3.6,0,7-1.4,9.6-4
	c2.7-2.7,4-6.3,4-10.8s-1.3-8.1-3.8-10.8c-2.4-2.6-5.8-4-9.4-3.9c-3.5-0.1-6.9,1.3-9.2,3.9c-2.5,2.6-3.7,6.2-3.7,10.8
	s1.2,8.2,3.5,10.9C-803.6,151.7-800.3,153.2-796.8,153.1L-796.8,153.1z"/>
<path class="st0" d="M-766.5,120.6v5.8c2.4-4.3,6.3-6.4,11.8-6.4c3.7-0.1,7.2,1.3,9.9,3.9s4,6.3,4,11.1v21.1h-4.5v-20.3
	c0-3.9-0.9-6.9-2.8-8.9c-4.4-4.1-11.1-4.1-15.5,0c-1.9,2-2.8,5-2.8,8.9v20.3h-4.6v-35.5C-771,120.6-766.5,120.6-766.5,120.6z"/>
<path class="st0" d="M-733.6,152.4h5.3c0.9,4.5,0.8,7.6-0.1,9.5c-0.9,1.8-2.7,2.8-5.3,2.8v-2.5c2,0,3-1.1,3-3.2v-1.6h-2.9V152.4z"/>
<path class="st0" d="M-669.1,156.1l-3.8-10.5h-20.9l-3.8,10.5h-4.6l16.5-44.8h4.7l16.4,44.8H-669.1z M-692.5,142h18.3l-9.1-25.1
	L-692.5,142z"/>
<path class="st0" d="M-653.6,120.6v5.8c1.9-4.3,5.6-6.5,11-6.5v4.7h-1.4c-3.1,0-5.5,0.8-7.2,2.5c-1.7,1.7-2.5,4.6-2.5,8.7v20.1h-4.5
	v-35.5h4.6V120.6z"/>
<path class="st0" d="M-629.6,110.5c0,0.9-0.3,1.7-0.9,2.4c-0.6,0.7-1.5,1-2.3,1c-1.8,0.1-3.4-1.3-3.5-3.2c-0.1-1.8,1.3-3.4,3.2-3.5
	c0.1,0,0.2,0,0.4,0c0.9,0,1.7,0.3,2.3,1C-629.9,108.8-629.6,109.7-629.6,110.5z M-635.2,156.1v-35.5h4.5v35.5H-635.2z"/>
<path class="st0" d="M-600.1,120.6v3.6l-18.1,28.3h18.1v3.6h-23.1v-3.6l18.1-28.3h-18.1v-3.6H-600.1z"/>
<path class="st0" d="M-577.6,156.7c-4.7,0.2-9.2-1.7-12.4-5.1c-3.2-3.4-4.8-7.8-4.8-13.3s1.7-9.9,5.1-13.4c7.1-6.8,18.3-6.8,25.4,0
	c3.4,3.4,5.1,7.8,5.1,13.3c0.2,5-1.8,9.8-5.3,13.3C-568.1,154.9-572.8,156.8-577.6,156.7z M-577.6,153.1c3.6,0,7-1.4,9.5-4
	c2.7-2.7,4-6.3,4-10.8s-1.3-8.1-3.8-10.8c-2.4-2.6-5.8-4-9.4-3.9c-3.5-0.1-6.9,1.3-9.2,3.9c-2.5,2.6-3.7,6.2-3.7,10.8
	s1.2,8.2,3.5,10.9C-584.4,151.7-581.1,153.2-577.6,153.1L-577.6,153.1z"/>
<path class="st0" d="M-547.3,120.6v5.8c2.4-4.3,6.3-6.4,11.8-6.4c3.7-0.1,7.2,1.3,9.9,3.9c2.7,2.6,4,6.3,4,11.1v21.1h-4.5v-20.3
	c0-3.9-0.9-6.9-2.8-8.9c-4.4-4.1-11.1-4.1-15.5,0c-1.9,2-2.8,5-2.8,8.9v20.3h-4.5v-35.5C-551.7,120.6-547.3,120.6-547.3,120.6z"/>
<path class="st0" d="M-509.7,151.4c-3.2-3.5-4.9-8-4.9-13.4s1.6-9.8,4.8-13.1c3.2-3.3,7.7-5.1,12.3-5c3-0.1,5.9,0.8,8.5,2.3
	c2.3,1.4,4.2,3.5,5.4,6v-7.7h4.6V156h-4.5v-7.8c-1.2,2.5-3.1,4.6-5.4,6.1c-2.5,1.6-5.5,2.4-8.5,2.4
	C-502.1,156.8-506.6,154.9-509.7,151.4z M-487.4,148.8c5.2-6,5.2-15,0-21c-2.4-2.6-5.8-4-9.3-4c-3.5-0.1-6.9,1.3-9.3,3.8
	c-2.6,2.6-3.8,6-3.8,10.4c-0.2,3.9,1.2,7.8,3.9,10.7c2.4,2.7,5.7,4.2,9.3,4.1C-493.2,152.9-489.8,151.4-487.4,148.8L-487.4,148.8z"
	/>
<path class="st2" d="M49.2,77.4V18.1h14.1v59.3H49.2z"/>
<path class="st2" d="M86.1,30.3v6.9c2.9-4.9,7.5-7.4,13.9-7.4c4.9-0.2,9.6,1.8,12.9,5.4c3.3,3.6,4.9,8.5,4.9,14.7v27.5h-14V51.8
	c0-3-0.8-5.4-2.4-7.1c-1.7-1.7-4.1-2.6-6.5-2.5c-2.4-0.1-4.8,0.8-6.5,2.6c-1.6,1.6-2.4,4-2.4,7v25.6H71.9V30.3H86.1z"/>
<path class="st2" d="M145.6,65.2h5v12.3h-7.2c-5.2,0-9.2-1.2-12-3.5s-4.2-6.3-4.3-12V42.3h-4.3v-12h4.3V18.8h14.2v11.5h9.3v12h-9.3
	v19.6C141.3,64.1,142.7,65.2,145.6,65.2z"/>
<path class="st2" d="M176.1,78c-6.7,0-12.2-2.2-16.5-6.6s-6.4-10.3-6.5-17.6c0-7.3,2.1-13.2,6.4-17.5s9.8-6.5,16.6-6.5
	s12.4,2.1,16.9,6.4s6.7,10.2,6.7,17.8c0,1.5-0.1,3.1-0.3,4.6h-31.8c0.2,2,1.2,3.8,2.7,5.1c1.4,1.3,3.1,2,5,2c1.4,0.1,2.7-0.1,4-0.6
	c0.7-0.3,1.4-0.6,1.9-1.1c0.6-0.6,1.1-1.2,1.6-1.8h15.3c-1.2,4.6-4.1,8.7-7.9,11.4C186.1,76.6,181.2,78.1,176.1,78z M182.1,44.2
	c-1.6-1.4-3.7-2.1-5.9-2.1c-2.1-0.1-4.1,0.7-5.7,2.1c-1.6,1.4-2.6,3.3-2.9,5.4h17.3C184.8,47.5,183.8,45.5,182.1,44.2L182.1,44.2z"
	/>
<path class="st2" d="M219.1,30.3v8.8c3.3-6.2,7.7-9.3,13.2-9.3v14.7h-3.5c-3.3,0-5.7,0.8-7.3,2.4c-1.6,1.6-2.4,4.3-2.4,8.3v22.3H205
	V30.3H219.1z"/>
<path class="st2" d="M250.3,30.3v6.9c2.9-5,7.6-7.4,14-7.4c4.9-0.2,9.6,1.8,12.9,5.4c3.3,3.6,4.9,8.5,4.9,14.7v27.6H268V51.8
	c0-3-0.8-5.4-2.4-7.1c-3.7-3.3-9.3-3.3-13,0c-1.6,1.7-2.4,4-2.4,7.1v25.6h-14.1V30.3H250.3z"/>
<path class="st2" d="M293,71.3c-4.1-4.5-6.1-10.3-6.1-17.3s2-12.8,6.1-17.4c3.7-4.4,9.2-6.8,14.9-6.8c5.9,0,10.4,2.2,13.5,6.7v-6.2
	h14.1v47.1h-14.1v-6.8c-3.4,5-8,7.4-13.7,7.4C302.1,78.1,296.7,75.6,293,71.3z M318.4,62.5c2-2,3.1-4.9,3.1-8.6s-1-6.6-3.1-8.6
	c-3.7-3.9-9.8-4-13.7-0.4c-0.1,0.1-0.2,0.2-0.4,0.4c-2,2-3.1,4.9-3.1,8.6s1,6.6,3.1,8.6c3.7,3.9,9.8,4,13.7,0.4
	C318.1,62.7,318.3,62.6,318.4,62.5z"/>
<path class="st2" d="M363.8,65.2h5v12.3h-7.2c-5.2,0-9.2-1.2-12-3.5s-4.2-6.3-4.3-12V42.3H341v-12h4.3V18.8h14.1v11.5h9.3v12h-9.3
	v19.6C359.5,64.1,360.9,65.2,363.8,65.2z"/>
<path class="st2" d="M387.6,24.9c-3.2,3.2-8.4,3.3-11.7,0.1c0,0,0,0-0.1-0.1c-1.6-1.6-2.4-3.8-2.4-6s0.8-4.4,2.4-6
	c3.2-3.2,8.4-3.3,11.7-0.1c0,0,0,0,0.1,0.1c1.6,1.6,2.4,3.8,2.4,6C390,21.2,389.2,23.4,387.6,24.9z M374.7,77.4V30.3h14.1v47.1
	H374.7z"/>
<path class="st2" d="M401.1,71.3c-4.7-4.4-7-10.3-7-17.6s2.3-13.1,6.9-17.5c9.8-8.7,24.6-8.7,34.4,0c4.6,4.4,6.9,10.2,6.9,17.5
	s-2.3,13.1-6.9,17.6c-4.6,4.4-10.7,6.9-17.1,6.7C411.9,78.2,405.7,75.8,401.1,71.3z M425.1,62.6c1.9-2,2.8-4.9,2.8-8.8
	s-1-6.8-2.9-8.8c-1.8-1.9-4.3-3-6.9-3s-5.1,1.1-6.8,3c-1.9,2-2.9,4.9-2.9,8.8s1,6.8,2.9,8.8c1.8,1.9,4.3,3,6.9,3
	C420.9,65.7,423.4,64.6,425.1,62.6L425.1,62.6z"/>
<path class="st2" d="M461.7,30.3v6.9c2.9-5,7.6-7.4,14-7.4c4.9-0.2,9.6,1.8,12.9,5.4c3.3,3.6,4.9,8.5,4.9,14.7v27.6h-14.1V51.8
	c0-3-0.8-5.4-2.4-7.1c-3.7-3.3-9.3-3.3-13,0c-1.6,1.7-2.4,4-2.4,7.1v25.6h-14.1V30.3H461.7z"/>
<path class="st2" d="M504.4,71.3c-4.1-4.5-6.1-10.3-6.1-17.3s2-12.8,6.1-17.4c3.7-4.4,9.2-6.8,14.9-6.8c5.9,0,10.4,2.2,13.5,6.7
	v-6.2H547v47.1h-14.2v-6.8c-3.4,5-8,7.4-13.7,7.4C513.4,78.1,508.1,75.6,504.4,71.3z M529.8,62.5c2-2,3.1-4.9,3.1-8.6
	c0-3.7-1-6.6-3.1-8.6c-3.7-3.9-9.8-4-13.7-0.4c-0.1,0.1-0.2,0.2-0.4,0.4c-2,2-3.1,4.9-3.1,8.6s1,6.6,3.1,8.6c3.7,3.9,9.8,4,13.7,0.4
	C529.5,62.7,529.7,62.6,529.8,62.5z"/>
<path class="st2" d="M555.6,77.4V14.9h14.1v62.5H555.6z"/>
<path class="st2" d="M599.3,77.4V18.1h37.8v11h-23.6v12.7h17.7v11h-17.7v24.6H599.3z"/>
<path class="st2" d="M657.2,30.3v8.8c3.3-6.2,7.7-9.3,13.2-9.3v14.7h-3.5c-3.3,0-5.7,0.8-7.3,2.4s-2.4,4.3-2.4,8.3v22.3H643V30.3
	H657.2z"/>
<path class="st2" d="M687.2,24.9c-3.2,3.2-8.4,3.3-11.7,0.1c0,0,0,0-0.1-0.1c-1.6-1.6-2.4-3.8-2.4-6s0.8-4.4,2.4-6
	c3.2-3.2,8.4-3.3,11.7-0.1c0,0,0,0,0.1,0.1c1.6,1.6,2.4,3.8,2.4,6C689.6,21.2,688.8,23.4,687.2,24.9z M674.3,77.4V30.3h14.1v47.1
	H674.3z"/>
<path class="st2" d="M716.6,78c-6.7,0-12.2-2.2-16.5-6.6s-6.4-10.3-6.4-17.6s2.1-13.2,6.4-17.5s9.8-6.5,16.6-6.5s12.4,2.1,16.9,6.4
	s6.7,10.2,6.7,17.8c0,1.5-0.1,3.1-0.3,4.6h-31.8c0.2,2,1.2,3.8,2.7,5.1c1.4,1.3,3.1,2,5,2c1.4,0.1,2.7-0.1,4-0.6
	c0.7-0.3,1.4-0.6,1.9-1.1c0.6-0.6,1.1-1.2,1.6-1.8h15.3c-1.2,4.6-4.1,8.7-7.9,11.4C726.6,76.6,721.7,78.1,716.6,78z M722.6,44.2
	c-1.6-1.4-3.7-2.1-5.9-2.1c-2.1-0.1-4.1,0.7-5.7,2.1c-1.6,1.4-2.6,3.3-2.9,5.4h17.3C725.3,47.5,724.3,45.5,722.6,44.2L722.6,44.2z"
	/>
<path class="st2" d="M759.6,30.3v6.9c2.9-4.9,7.6-7.4,14-7.4c4.9-0.2,9.6,1.8,12.9,5.4c3.3,3.6,4.9,8.5,4.9,14.7v27.5h-14.1V51.8
	c0-3-0.8-5.4-2.4-7.1c-3.7-3.3-9.3-3.3-13,0c-1.6,1.7-2.3,4-2.3,7.1v25.6h-14.1V30.3H759.6z"/>
<path class="st2" d="M802.3,71.3c-4.1-4.5-6.1-10.3-6.1-17.3s2-12.8,6.1-17.4c3.7-4.4,9.2-6.8,14.9-6.8c5.9,0,10.4,2.2,13.5,6.7
	V14.9h14.1v62.5h-14.1v-6.8c-3.4,5-8,7.4-13.7,7.4C811.3,78.1,805.9,75.6,802.3,71.3z M827.6,62.5c2-2,3.1-4.9,3.1-8.6
	s-1-6.6-3.1-8.6c-3.7-3.9-9.8-4-13.7-0.4c-0.1,0.1-0.2,0.2-0.4,0.4c-2,2-3.1,4.9-3.1,8.6s1,6.6,3.1,8.6c3.7,3.9,9.8,4,13.7,0.4
	C827.4,62.7,827.5,62.6,827.6,62.5z"/>
<path class="st2" d="M850.3,44.5c0-4.1,1.9-8,5.2-10.5c3.5-2.8,8.2-4.2,14.1-4.2c5.9,0,10.7,1.4,14.3,4.1c3.6,2.7,5.7,6.9,5.8,11.3
	h-14.5c0-1.3-0.6-2.5-1.7-3.3c-1.3-0.7-2.8-1-4.2-0.9c-3.7,0-5.5,1.2-5.5,3.5c0,2.1,2.3,3.5,6.8,4.3c4.3,0.7,8.5,1.9,12.5,3.6
	c2,0.8,3.6,2.2,4.8,3.9c1.3,2,2,4.3,1.9,6.7c0,4.3-2,8.3-5.5,10.7c-3.7,2.8-8.4,4.2-14,4.2s-10.3-1.3-14-3.9s-5.8-6.5-6.1-11.6h14.5
	c0.4,2.9,2.4,4.3,6,4.3c1.5,0.1,2.9-0.4,4.1-1.2c1-0.7,1.6-1.8,1.6-3c0-1.2-0.9-2.2-2.7-3c-2.1-0.8-4.3-1.4-6.5-1.9
	c-2.5-0.5-5.1-1.1-7.7-1.9c-2.5-0.7-4.8-2.1-6.5-4C851.2,49.8,850.2,47.2,850.3,44.5z"/>
<line class="st3" x1="43" y1="92.8" x2="954" y2="92.8"/>
<path class="st2" d="M46.2,112.7V109h28v3.7H62.4v41.1H58v-41.1H46.2z"/>
<path class="st2" d="M102.3,118.4h4.6v35.5h-4.6v-5.8c-2.4,4.3-6.3,6.4-11.8,6.4c-3.7,0.1-7.2-1.3-9.9-3.9c-2.7-2.6-4-6.3-4-11.1
	v-21.1h4.5v20.3c0,3.9,0.9,6.9,2.8,8.9c2,2.1,4.8,3.2,7.7,3.1c2.9,0.2,5.7-1,7.7-3.1c1.9-2,2.8-5,2.8-8.9L102.3,118.4z"/>
<path class="st2" d="M119.1,149.4c-3.2-3.4-4.7-7.8-4.7-13.3s1.6-9.9,4.7-13.3c3.2-3.4,7.7-5.2,12.3-5.1c8.3,0,13.6,3.7,15.9,11.2
	h-4.9c-0.6-2.2-2-4.2-3.9-5.6c-2.1-1.4-4.5-2.1-7.1-2c-3.4-0.1-6.7,1.3-9,3.8c-2.3,2.5-3.5,6.2-3.5,10.9s1.1,8.4,3.4,11s5.6,4,9,3.8
	c2.5,0.1,5-0.6,7.1-2c1.9-1.4,3.3-3.3,3.9-5.6h4.9c-1,3.2-3,6-5.7,8.1c-3,2.1-6.6,3.2-10.2,3.1C126.8,154.7,122.3,152.8,119.1,149.4
	z"/>
<path class="st2" d="M154.6,128.2c0-2.9,1.3-5.7,3.6-7.4c2.6-2.1,5.9-3.1,9.3-3c3.8,0,6.7,1,8.8,3c2.2,2.2,3.4,5.1,3.5,8.2h-4.7
	c0-4.1-3.2-7.5-7.3-7.5c-0.2,0-0.4,0-0.7,0c-2.1-0.1-4.2,0.5-5.8,1.8c-1.3,1.1-2.1,2.7-2.1,4.4c-0.1,1.5,0.5,3,1.6,4.1
	c1.1,1,2.5,1.7,3.9,2c1.6,0.3,3.3,0.8,5.1,1.2s3.6,1,5.1,1.5c1.6,0.5,3,1.6,3.9,2.9c1.1,1.6,1.6,3.5,1.6,5.4c0,2.8-1.3,5.4-3.6,7
	c-2.7,1.9-6,2.9-9.4,2.7c-3.9,0-6.9-1-9.2-3c-2.3-2.1-3.6-5-3.7-8.1h4.7c0,2,0.9,4,2.3,5.4c1.7,1.5,3.9,2.2,6.1,2.1
	c2.1,0.1,4.2-0.5,6-1.7c1.4-1,2.2-2.6,2.1-4.3c0.1-1.5-0.5-3-1.6-4.1c-1.1-1-2.5-1.7-3.9-2c-1.6-0.4-3.3-0.8-5.1-1.3s-3.6-1-5.1-1.5
	C156.7,135.1,154.5,131.8,154.6,128.2L154.6,128.2z"/>
<path class="st2" d="M204.2,154.5c-4.7,0.2-9.2-1.7-12.4-5.1c-3.2-3.4-4.8-7.8-4.8-13.3s1.7-9.9,5.1-13.4c7.1-6.8,18.3-6.8,25.4,0
	c3.4,3.4,5.1,7.8,5.1,13.3c0.2,5-1.8,9.8-5.3,13.3C213.7,152.7,209.1,154.6,204.2,154.5z M204.2,150.9c3.6,0,7-1.4,9.6-4
	c2.7-2.7,4-6.3,4-10.8s-1.3-8.1-3.8-10.8c-2.4-2.6-5.8-4-9.4-3.9c-3.5-0.1-6.9,1.3-9.2,3.9c-2.5,2.6-3.7,6.2-3.7,10.8
	s1.2,8.2,3.5,10.9C197.4,149.5,200.7,151,204.2,150.9L204.2,150.9z"/>
<path class="st2" d="M234.5,118.4v5.8c2.4-4.3,6.3-6.4,11.8-6.4c3.7-0.1,7.2,1.3,9.9,3.9c2.7,2.6,4,6.3,4,11.1v21.1h-4.5v-20.3
	c0-3.9-0.9-6.9-2.8-8.9c-4.4-4.1-11.1-4.1-15.5,0c-1.9,2-2.8,5-2.8,8.9v20.3H230v-35.5C230,118.4,234.5,118.4,234.5,118.4z"/>
<path class="st2" d="M267.4,150.2h5.3c0.9,4.5,0.8,7.6-0.1,9.5c-0.9,1.8-2.7,2.8-5.3,2.8V160c2,0,3-1.1,3-3.2v-1.6h-2.9V150.2z"/>
<path class="st2" d="M331.9,153.9l-3.8-10.5h-20.9l-3.8,10.5h-4.6l16.5-44.8h4.7l16.4,44.8H331.9z M308.5,139.8h18.3l-9.1-25.1
	L308.5,139.8z"/>
<path class="st2" d="M347.4,118.4v5.8c1.9-4.3,5.6-6.5,11-6.5v4.7H357c-3.1,0-5.5,0.8-7.2,2.5c-1.7,1.7-2.5,4.6-2.5,8.7v20.1h-4.5
	v-35.5h4.6V118.4z"/>
<path class="st2" d="M371.4,108.3c0,0.9-0.3,1.7-0.9,2.4c-0.6,0.7-1.5,1-2.3,1c-1.8,0.1-3.4-1.3-3.5-3.2c-0.1-1.8,1.3-3.4,3.2-3.5
	c0.1,0,0.2,0,0.4,0c0.9,0,1.7,0.3,2.3,1C371.1,106.6,371.4,107.5,371.4,108.3z M365.8,153.9v-35.5h4.5v35.5H365.8z"/>
<path class="st2" d="M400.9,118.4v3.6l-18.1,28.3h18.1v3.6h-23.1v-3.6l18.1-28.3h-18.1v-3.6H400.9z"/>
<path class="st2" d="M423.4,154.5c-4.7,0.2-9.2-1.7-12.4-5.1c-3.2-3.4-4.8-7.8-4.8-13.3s1.7-9.9,5.1-13.4c7.1-6.8,18.3-6.8,25.4,0
	c3.4,3.4,5.1,7.8,5.1,13.3c0.2,5-1.8,9.8-5.3,13.3C432.9,152.7,428.2,154.6,423.4,154.5z M423.4,150.9c3.6,0,7-1.4,9.5-4
	c2.7-2.7,4-6.3,4-10.8s-1.3-8.1-3.8-10.8c-2.4-2.6-5.8-4-9.4-3.9c-3.5-0.1-6.9,1.3-9.2,3.9c-2.5,2.6-3.7,6.2-3.7,10.8
	s1.2,8.2,3.5,10.9C416.6,149.5,419.9,151,423.4,150.9L423.4,150.9z"/>
<path class="st2" d="M453.7,118.4v5.8c2.4-4.3,6.3-6.4,11.8-6.4c3.7-0.1,7.2,1.3,9.9,3.9c2.7,2.6,4,6.3,4,11.1v21.1h-4.5v-20.3
	c0-3.9-0.9-6.9-2.8-8.9c-4.4-4.1-11.1-4.1-15.5,0c-1.9,2-2.8,5-2.8,8.9v20.3h-4.5v-35.5C449.3,118.4,453.7,118.4,453.7,118.4z"/>
<path class="st2" d="M491.3,149.2c-3.2-3.5-4.9-8-4.9-13.4s1.6-9.8,4.8-13.1c3.2-3.3,7.7-5.1,12.3-5c3-0.1,5.9,0.8,8.5,2.3
	c2.3,1.4,4.2,3.5,5.4,6v-7.7h4.6v35.5h-4.5V146c-1.2,2.5-3.1,4.6-5.4,6.1c-2.5,1.6-5.5,2.4-8.5,2.4
	C498.9,154.6,494.4,152.7,491.3,149.2z M513.6,146.6c5.2-6,5.2-15,0-21c-2.4-2.6-5.8-4-9.3-4c-3.5-0.1-6.9,1.3-9.3,3.8
	c-2.6,2.6-3.8,6-3.8,10.4c-0.2,3.9,1.2,7.8,3.9,10.7c2.4,2.7,5.7,4.2,9.3,4.1C507.8,150.7,511.2,149.2,513.6,146.6L513.6,146.6z"/>
</svg>
