<svg id="Layer_1" data-name="Layer 1" xmlns="http://www.w3.org/2000/svg" viewBox="0 0 960 173"><title>logo</title><path d="M28.2,79.63V20.31H42.34V79.63Z" style="fill:#fff"/><path d="M65.07,32.48V39.4Q69.45,32,79,32A16.57,16.57,0,0,1,91.9,37.38q4.92,5.41,4.92,14.7V79.63H82.76V54q0-4.56-2.36-7.06a8.5,8.5,0,0,0-6.49-2.49A8.5,8.5,0,0,0,67.43,47Q65.07,49.46,65.07,54v25.6H50.94V32.48Z" style="fill:#fff"/><path d="M124.6,67.37h5V79.63h-7.19q-7.77,0-12-3.51t-4.26-12V44.47h-4.3v-12h4.3V21H120.3V32.48h9.26v12H120.3v19.6Q120.3,67.37,124.6,67.37Z" style="fill:#fff"/><path d="M155.1,80.22q-10.09,0-16.53-6.63T132.12,56q0-11,6.41-17.49T155.1,32q10.17,0,16.87,6.42t6.7,17.83a29.69,29.69,0,0,1-.33,4.56H146.59a7.85,7.85,0,0,0,2.73,5.11,7.53,7.53,0,0,0,5,2,11,11,0,0,0,4-.55,7.1,7.1,0,0,0,1.94-1.1,14.5,14.5,0,0,0,1.61-1.82h15.29a20.71,20.71,0,0,1-7.94,11.45A23.3,23.3,0,0,1,155.1,80.22Zm6-33.84a8.88,8.88,0,0,0-5.87-2.07,8.25,8.25,0,0,0-5.7,2.07,9.06,9.06,0,0,0-2.89,5.37h17.28A7.73,7.73,0,0,0,161.14,46.38Z" style="fill:#fff"/><path d="M198.09,32.48v8.79q5-9.29,13.23-9.3v14.7h-3.47q-4.88,0-7.32,2.37t-2.44,8.28V79.63H184V32.48Z" style="fill:#fff"/><path d="M229.34,32.48V39.4q4.38-7.43,14-7.44a16.57,16.57,0,0,1,12.86,5.41q4.92,5.41,4.92,14.7V79.63H247V54q0-4.56-2.36-7.06a9.7,9.7,0,0,0-13,0q-2.36,2.49-2.36,7.06v25.6H215.2V32.48Z" style="fill:#fff"/><path d="M272,73.46q-6.12-6.76-6.12-17.32T272,38.77A19.33,19.33,0,0,1,286.92,32q8.8,0,13.52,6.68V32.48h14.14V79.63H300.44V72.78q-5.13,7.44-13.72,7.44A19.16,19.16,0,0,1,272,73.46Zm25.38-8.79q3.06-3,3.06-8.62t-3.06-8.58a9.68,9.68,0,0,0-14.05,0q-3.06,3-3.06,8.62t3.06,8.58a9.68,9.68,0,0,0,14.05,0Z" style="fill:#fff"/><path d="M342.77,67.37h5V79.63h-7.19q-7.77,0-12-3.51t-4.26-12V44.47H320v-12h4.3V21h14.14V32.48h9.26v12h-9.26v19.6Q338.47,67.37,342.77,67.37Z" style="fill:#fff"/><path d="M366.58,27.15a8.25,8.25,0,0,1-11.74,0,8.3,8.3,0,0,1-2.4-6,8.3,8.3,0,0,1,2.4-6,8.26,8.26,0,0,1,11.74,0,8.31,8.31,0,0,1,2.4,6A8.3,8.3,0,0,1,366.58,27.15Zm-12.9,52.47V32.48h14.14V79.63Z" style="fill:#fff"/><path d="M380.09,73.54q-7-6.67-7-17.58t6.94-17.45a25.8,25.8,0,0,1,34.35,0q6.9,6.55,6.9,17.45t-6.86,17.58a23.57,23.57,0,0,1-17.11,6.68A24,24,0,0,1,380.09,73.54Zm24-8.7q2.81-3,2.81-8.79T404,47.3a9.22,9.22,0,0,0-6.86-3,9.09,9.09,0,0,0-6.82,3q-2.85,3-2.85,8.75t2.94,8.79a9.29,9.29,0,0,0,6.9,3A8.9,8.9,0,0,0,404.11,64.84Z" style="fill:#fff"/><path d="M440.73,32.48V39.4q4.38-7.43,14-7.44a16.57,16.57,0,0,1,12.86,5.41q4.92,5.41,4.92,14.7V79.63H458.42V54q0-4.56-2.36-7.06a9.7,9.7,0,0,0-13,0q-2.36,2.49-2.36,7.06v25.6H426.6V32.48Z" style="fill:#fff"/><path d="M483.39,73.46q-6.12-6.76-6.12-17.32t6.12-17.36A19.32,19.32,0,0,1,498.31,32q8.81,0,13.52,6.68V32.48H526V79.63H511.83V72.78q-5.13,7.44-13.72,7.44A19.15,19.15,0,0,1,483.39,73.46Zm25.38-8.79q3.06-3,3.06-8.62t-3.06-8.58a9.68,9.68,0,0,0-14.05,0q-3.06,3-3.06,8.62t3.06,8.58a9.68,9.68,0,0,0,14.05,0Z" style="fill:#fff"/><path d="M534.57,79.63V17.1H548.7V79.63Z" style="fill:#fff"/><path d="M578.3,79.63V20.31h37.78v11H592.44V44.05h17.69V55H592.44V79.63Z" style="fill:#fff"/><path d="M636.17,32.48v8.79q5-9.29,13.23-9.3v14.7h-3.47q-4.88,0-7.32,2.37t-2.44,8.28V79.63H622V32.48Z" style="fill:#fff"/><path d="M666.18,27.15a8.26,8.26,0,0,1-11.74,0,8.3,8.3,0,0,1-2.4-6,8.31,8.31,0,0,1,2.4-6,8.26,8.26,0,0,1,11.74,0,8.31,8.31,0,0,1,2.4,6A8.3,8.3,0,0,1,666.18,27.15Zm-12.9,52.47V32.48h14.14V79.63Z" style="fill:#fff"/><path d="M695.61,80.22q-10.09,0-16.53-6.63T672.63,56q0-11,6.41-17.49T695.61,32q10.17,0,16.87,6.42t6.7,17.83a29.63,29.63,0,0,1-.33,4.56H687.09a7.85,7.85,0,0,0,2.73,5.11,7.53,7.53,0,0,0,5,2,11,11,0,0,0,4-.55,7.09,7.09,0,0,0,1.94-1.1,14.57,14.57,0,0,0,1.61-1.82h15.29a20.71,20.71,0,0,1-7.94,11.45A23.29,23.29,0,0,1,695.61,80.22Zm6-33.84a8.88,8.88,0,0,0-5.87-2.07,8.24,8.24,0,0,0-5.7,2.07,9.06,9.06,0,0,0-2.89,5.37h17.28A7.73,7.73,0,0,0,701.64,46.38Z" style="fill:#fff"/><path d="M738.6,32.48V39.4Q743,32,752.57,32a16.57,16.57,0,0,1,12.86,5.41q4.92,5.41,4.92,14.7V79.63H756.29V54q0-4.56-2.36-7.06a9.69,9.69,0,0,0-13,0Q738.6,49.46,738.6,54v25.6H724.46V32.48Z" style="fill:#fff"/><path d="M781.26,73.46q-6.12-6.76-6.12-17.32t6.12-17.36A19.32,19.32,0,0,1,796.18,32q8.81,0,13.52,6.68V17.1h14.14V79.63H809.7V72.78q-5.13,7.44-13.72,7.44A19.15,19.15,0,0,1,781.26,73.46Zm25.38-8.79q3.06-3,3.06-8.62t-3.06-8.58a9.68,9.68,0,0,0-14.05,0q-3.06,3-3.06,8.62t3.06,8.58a9.68,9.68,0,0,0,14.05,0Z" style="fill:#fff"/><path d="M829.29,46.67a13,13,0,0,1,5.21-10.48Q839.71,32,848.59,32t14.34,4.14a14.34,14.34,0,0,1,5.79,11.32H854.26a4.18,4.18,0,0,0-1.65-3.34,8,8,0,0,0-4.22-.89q-5.54,0-5.54,3.46,0,3.13,6.78,4.31a54.3,54.3,0,0,1,12.48,3.63,10.94,10.94,0,0,1,4.84,3.93,11.34,11.34,0,0,1,1.94,6.72A12.93,12.93,0,0,1,863.35,76q-5.54,4.18-14,4.18t-14.05-3.93q-5.62-3.93-6.12-11.62h14.47q.58,4.31,6,4.31a6.73,6.73,0,0,0,4.09-1.18,3.62,3.62,0,0,0,1.61-3q0-1.86-2.69-3a36,36,0,0,0-6.49-1.86q-3.8-.76-7.65-1.9a14.52,14.52,0,0,1-6.53-4A10.3,10.3,0,0,1,829.29,46.67Z" style="fill:#fff"/><line x1="22" y1="95" x2="933" y2="95" style="fill:#fff;stroke:#fff;stroke-width:2px"/><path d="M25.18,114.92v-3.7h28v3.7H41.43v41.14H36.95V114.92Z" style="fill:#fff"/><path d="M81.34,120.58h4.55v35.49H81.34v-5.78q-3.57,6.43-11.76,6.43a13.58,13.58,0,0,1-9.88-3.87q-4-3.87-4-11.15V120.58h4.48v20.28q0,5.85,2.83,8.9a10,10,0,0,0,7.73,3.05,10,10,0,0,0,7.73-3.05q2.83-3.05,2.83-8.9Z" style="fill:#fff"/><path d="M98.1,151.64q-4.74-5.07-4.74-13.32T98.1,125a16.14,16.14,0,0,1,12.35-5.07q12.48,0,15.86,11.18h-4.87a10.26,10.26,0,0,0-3.93-5.56,12,12,0,0,0-7.05-2,11.54,11.54,0,0,0-9,3.8Q98,131.17,98,138.29t3.44,11a11.49,11.49,0,0,0,9,3.83,12,12,0,0,0,7.05-2,10.25,10.25,0,0,0,3.93-5.56h4.87a16.61,16.61,0,0,1-5.65,8.12,16.24,16.24,0,0,1-10.2,3.05A16.14,16.14,0,0,1,98.1,151.64Z" style="fill:#fff"/><path d="M133.65,130.39a9.32,9.32,0,0,1,3.64-7.44,14.06,14.06,0,0,1,9.29-3q5.65,0,8.81,3a11.71,11.71,0,0,1,3.48,8.16h-4.68a7.42,7.42,0,0,0-8-7.47,8.63,8.63,0,0,0-5.82,1.82,5.6,5.6,0,0,0-2.11,4.39,5.36,5.36,0,0,0,1.56,4.06,8,8,0,0,0,3.93,2q2.37.52,5.13,1.23t5.13,1.53a8.06,8.06,0,0,1,3.93,2.92,8.9,8.9,0,0,1,1.56,5.43,8.46,8.46,0,0,1-3.57,7,15.07,15.07,0,0,1-9.39,2.73q-5.82,0-9.2-3a11.3,11.3,0,0,1-3.7-8.12h4.68a7.5,7.5,0,0,0,2.34,5.39,8.51,8.51,0,0,0,6.08,2.08,9.63,9.63,0,0,0,6-1.66,5.15,5.15,0,0,0,2.14-4.26,5.4,5.4,0,0,0-1.56-4.09,8.26,8.26,0,0,0-3.93-2q-2.37-.55-5.13-1.27t-5.13-1.49a7.88,7.88,0,0,1-5.49-7.86Z" style="fill:#fff"/><path d="M183.21,156.71a16.28,16.28,0,0,1-12.41-5.07Q166,146.57,166,138.35T171.09,125a18.29,18.29,0,0,1,25.35,0q5.07,5.1,5.07,13.26a17.63,17.63,0,0,1-5.33,13.29A18,18,0,0,1,183.21,156.71Zm0-3.64a13.16,13.16,0,0,0,9.55-4q4-4,4-10.82t-3.83-10.79a12.58,12.58,0,0,0-9.36-3.93,12.21,12.21,0,0,0-9.23,3.9q-3.7,3.9-3.7,10.85t3.51,10.85A11.6,11.6,0,0,0,183.18,153.07Z" style="fill:#fff"/><path d="M213.53,120.58v5.78q3.57-6.43,11.76-6.43a13.59,13.59,0,0,1,9.88,3.87q4,3.87,4,11.15v21.12h-4.48V135.79q0-5.85-2.83-8.9a11.32,11.32,0,0,0-15.47,0q-2.83,3.06-2.83,8.9v20.28H209V120.58Z" style="fill:#fff"/><path d="M246.35,152.42h5.26q1.3,6.69-.06,9.46t-5.26,2.76v-2.47q3,0,3-3.18v-1.62h-2.92Z" style="fill:#fff"/><path d="M310.88,156.06l-3.77-10.46H286.18l-3.83,10.46H277.8l16.51-44.84H299l16.44,44.84ZM287.48,142h18.26l-9.1-25.09Z" style="fill:#fff"/><path d="M326.35,120.58v5.85q2.92-6.5,11-6.5v4.74H336q-4.68,0-7.18,2.53t-2.5,8.71v20.15H321.8V120.58Z" style="fill:#fff"/><path d="M350.4,110.54a3.29,3.29,0,0,1-.94,2.37,3.12,3.12,0,0,1-2.34,1,3.35,3.35,0,1,1,0-6.69,3.12,3.12,0,0,1,2.34,1A3.29,3.29,0,0,1,350.4,110.54Zm-5.65,45.53V120.58h4.55v35.49Z" style="fill:#fff"/><path d="M379.9,120.58v3.57l-18.13,28.27H379.9v3.64H356.76v-3.64l18.13-28.27H356.76v-3.57Z" style="fill:#fff"/><path d="M402.35,156.71a16.28,16.28,0,0,1-12.41-5.07q-4.78-5.07-4.78-13.29T390.23,125a18.29,18.29,0,0,1,25.35,0q5.07,5.1,5.07,13.26a17.63,17.63,0,0,1-5.33,13.29A18,18,0,0,1,402.35,156.71Zm0-3.64a13.16,13.16,0,0,0,9.55-4q4-4,4-10.82t-3.83-10.79a12.58,12.58,0,0,0-9.36-3.93,12.21,12.21,0,0,0-9.23,3.9q-3.7,3.9-3.7,10.85t3.51,10.85A11.6,11.6,0,0,0,402.32,153.07Z" style="fill:#fff"/><path d="M432.67,120.58v5.78q3.57-6.43,11.76-6.43a13.59,13.59,0,0,1,9.88,3.87q4,3.87,4,11.15v21.12h-4.48V135.79q0-5.85-2.83-8.9a11.32,11.32,0,0,0-15.47,0q-2.83,3.06-2.83,8.9v20.28h-4.55V120.58Z" style="fill:#fff"/><path d="M470.3,151.45q-4.87-5.26-4.87-13.42t4.84-13.13a16.45,16.45,0,0,1,12.32-5,15.29,15.29,0,0,1,8.45,2.34,14.47,14.47,0,0,1,5.39,6v-7.73H501v35.49h-4.55v-7.8a14.68,14.68,0,0,1-5.39,6.08,15.13,15.13,0,0,1-8.45,2.37A16,16,0,0,1,470.3,151.45Zm22.26-2.63a16.18,16.18,0,0,0,0-21,12.51,12.51,0,0,0-9.33-4,12.66,12.66,0,0,0-9.29,3.83q-3.83,3.83-3.83,10.37A15,15,0,0,0,474,148.69a12.28,12.28,0,0,0,9.29,4.13A12.47,12.47,0,0,0,492.56,148.82Z" style="fill:#fff"/></svg>